<svg xmlns="http://www.w3.org/2000/svg" width="795" height="379" viewBox="0 0 795 379">
    <g fill="none" fill-rule="nonzero">
        <path fill="#FF685B" d="M125.699 371l-1.699-.402c18.94-88.485 66.537-168.838 134.024-226.257C361.75 56.228 501.384 30.51 627.456 76.3 753.527 122.09 848.226 232.917 878 369.52l-1.697.405C836.21 184.99 681.93 55.829 501.117 55.829c-178.443 0-336.329 132.548-375.418 315.171z"/>
        <circle cx="783" cy="58" r="58" fill="#FF685B"/>
        <path fill="#FF685B" d="M762 292h3v84h-3z"/>
        <path fill="#7DAED1" d="M781 303.404C781.112 332.95 763.705 357 763.705 357s-17.591-23.856-17.705-53.404C745.887 274.05 763.294 250 763.294 250s17.591 23.856 17.705 53.404z"/>
        <path fill="#000" d="M781 303.404C781.112 332.95 763.705 357 763.705 357s-17.591-23.856-17.705-53.404C745.887 274.05 763.294 250 763.294 250s17.591 23.856 17.705 53.404z" opacity=".1"/>
        <circle cx="390" cy="107" r="24" fill="#7DAED1" opacity=".4"/>
        <circle cx="186" cy="175" r="24" fill="#7DAED1" opacity=".4"/>
        <circle cx="752" cy="87" r="33" fill="#7DAED1" opacity=".4"/>
        <path fill="#FF685B" d="M51.362 368.268c1.2 6.627 5.31 10.732 5.31 10.732s2.166-6.64.966-13.268c-1.2-6.627-5.31-10.732-5.31-10.732s-2.166 6.64-.966 13.268z"/>
        <path fill="#7DAED1" d="M50.972 364.09C54.562 368.783 55 376 55 376s-5.382-.395-8.972-5.09C42.438 366.217 42 359 42 359s5.382.395 8.972 5.09z"/>
        <path fill="#73B5E5" d="M583.362 368.268c1.2 6.627 5.31 10.732 5.31 10.732s2.166-6.64.966-13.268c-1.2-6.627-5.31-10.732-5.31-10.732s-2.166 6.64-.966 13.268z"/>
        <path fill="#7DAED1" d="M585.972 364.09C589.562 368.783 590 376 590 376s-5.382-.395-8.972-5.09C577.438 366.217 577 359 577 359s5.382.395 8.972 5.09z"/>
        <path fill="#73B5E5" d="M58.57 316.439L55 309.122 88.32 274H174v10.243l-30.94 40.977-35.7 8.78z"/>
        <path fill="#CCC" d="M190.473 294.175V271h-11.312v7.308l-3.56-4.994-28.8 35.55-4.801 5.924-6 29.625L146.8 377H202v-66.655z"/>
        <path fill="#F2F2F2" d="M55 309h91v67H55z"/>
        <path fill="#73B5E5" d="M114 330h20v20h-20z"/>
        <path fill="#CCC" d="M91 328h17v48H91z"/>
        <path fill="#73B5E5" d="M71 337v-7h-7v7h6.416zM70.416 343H64v7h7v-7zM76 330h7v7h-7zM76 343h7v7h-7zM172 337v-7h-7v7h6.416zM171.416 344H165v7h7v-7zM176 330h7v7h-7zM176 344h7v7h-7zM406.57 316.439l-3.57-7.317L436.32 274H522v10.243l-30.94 40.977-35.7 8.78z"/>
        <path fill="#CCC" d="M538.473 294.175V271h-11.312v7.308l-3.56-4.994-28.8 35.55-4.801 5.924-6 29.625L494.8 377H550v-66.655z"/>
        <path fill="#F2F2F2" d="M403 309h91v67h-91z"/>
        <path fill="#73B5E5" d="M462 330h20v20h-20z"/>
        <path fill="#CCC" d="M438 328h17v48h-17z"/>
        <path fill="#73B5E5" d="M418 337v-7h-7v7h6.416zM417.416 343H411v7h7v-7zM423 330h7v7h-7zM423 343h7v7h-7zM518 337v-7h-7v7h6.416zM517.416 344H511v7h7v-7zM524 330h7v7h-7zM524 344h7v7h-7zM243.909 191.68L238 185.792 271.09 149H355v32.377L300.637 227z"/>
        <path fill="#CCC" d="M372.725 171.672v-19.936h-11.32v4.883L357.182 151l-27.618 36.85-10.806 8.845L302 346.98 327.27 378H386V189.325z"/>
        <path fill="#F2F2F2" d="M237 187h91v190h-91z"/>
        <path fill="#CCC" d="M275 331h17v47h-17z"/>
        <path fill="#73B5E5" d="M256 344v-7h-7v7h6.417zM255.417 349H249v7h7v-7zM260 337h7v7h-7zM260 349h7v7h-7zM303 344v-7h-7v7h6.417zM302.417 349H296v7h7v-7zM310 337h7v7h-7zM310 349h7v7h-7zM355 197v-7h-7v7h6.417zM354.417 203H348v7h7v-7zM359 190h7v7h-7zM359 203h7v7h-7zM355 236v-7h-7v7h6.417zM354.417 245H348v7h7v-7zM359 229h7v7h-7zM359 245h7v7h-7zM355 278v-7h-7v7h6.417zM354.417 285H348v7h7v-7zM359 271h7v7h-7zM359 285h7v7h-7zM355 320v-7h-7v7h6.417zM354.417 325H348v7h7v-7zM359 313h7v7h-7zM359 325h7v7h-7zM249 196h68v18h-68zM249 234h68v18h-68zM249 267h68v18h-68zM249 302h68v18h-68zM597.909 193.68L592 187.792 625.09 151H709v32.377L654.637 229z"/>
        <path fill="#CCC" d="M724.725 171.672v-19.936h-11.32v4.883L709.182 151l-27.618 36.85-10.806 8.845L654 346.98 679.27 378H738V189.325z"/>
        <path fill="#F2F2F2" d="M590 187h91v190h-91z"/>
        <path fill="#CCC" d="M624 331h17v47h-17z"/>
        <path fill="#73B5E5" d="M606 344v-7h-7v7h6.417zM605.417 349H599v7h7v-7zM610 337h7v7h-7zM610 349h7v7h-7zM655 344v-7h-7v7h6.417zM654.417 349H648v7h7v-7zM659 337h7v7h-7zM659 349h7v7h-7zM704 197v-7h-7v7h6.417zM703.417 203H697v7h7v-7zM711 190h7v7h-7zM711 203h7v7h-7zM704 236v-7h-7v7h6.417zM703.417 245H697v7h7v-7zM711 229h7v7h-7zM711 245h7v7h-7zM704 278v-7h-7v7h6.417zM703.417 285H697v7h7v-7zM711 271h7v7h-7zM711 285h7v7h-7zM704 320v-7h-7v7h6.417zM703.417 325H697v7h7v-7zM711 313h7v7h-7zM711 325h7v7h-7zM599 196h68v18h-68zM599 234h68v18h-68zM599 267h68v18h-68zM599 302h68v18h-68zM786.909 191.68L781 185.792 814.09 149H898v32.377L843.637 227z"/>
        <path fill="#F2F2F2" d="M782 187h91v190h-91z"/>
        <path fill="#73B5E5" d="M797 344v-7h-7v7h6.417zM796.417 349H790v7h7v-7zM791 196h68v18h-68zM791 234h68v18h-68zM791 267h68v18h-68zM791 302h68v18h-68z"/>
        <path fill="#FF685B" d="M0 375h989v3H0z"/>
        <path fill="#FF685B" d="M218 292h3v84h-3z"/>
        <path fill="#73B5E5" d="M238 303.404C238.112 332.95 220.705 357 220.705 357s-17.591-23.856-17.705-53.404C202.887 274.05 220.294 250 220.294 250s17.591 23.856 17.705 53.404z"/>
        <path fill="#FF685B" d="M393 292h3v84h-3z"/>
        <path fill="#73B5E5" d="M411 303.404C411.112 332.95 393.705 357 393.705 357s-17.591-23.856-17.705-53.404C375.887 274.05 393.294 250 393.294 250s17.591 23.856 17.705 53.404z"/>
        <path fill="#FF685B" d="M741 292h3v84h-3z"/>
        <path fill="#73B5E5" d="M759 303.404C759.112 332.95 741.705 357 741.705 357s-17.591-23.856-17.705-53.404C723.887 274.05 741.294 250 741.294 250s17.591 23.856 17.705 53.404z"/>
        <ellipse cx="513" cy="55" fill="#73B5E5" rx="33" ry="9"/>
    </g>
</svg>
