<svg xmlns="http://www.w3.org/2000/svg" width="1440" height="330" viewBox="0 0 1440 330">
    <g fill="none" fill-rule="evenodd" stroke="#73B5E5" stroke-width="2">
        <path fill="#FFF" d="M0 329h252v-62h46v62h45V200h50l38 32v97h47v-64l48-97v161h54v-37c-18.667-7.333-28-17.333-28-30 0-19 17-27 35-27s33 10 33 27c0 14-15 30-26 30v37h51V97h68v232h72V141l47 59v129h40V182h50v147h118v-64h96v64h304"/>
        <path fill="#FFF" d="M662 97V41h58V2l13 10v29h82v137l-30-37v188h-73V99zM922 243h61v86h-61z"/>
        <path d="M260 275v8M270 275v8M280 275v8M290 275v8M260 295v8M270 295v8M280 295v8M290 295v8M260 315v8M270 315v8M280 315v8M290 315v8M355 212v8M365 212v8M375 212v8M385 212v8M355 232v8M365 232v8M375 232v8M385 232v8M355 252v8M365 252v8M375 252v8M385 252v8M355 272v8M365 272v8M375 272v8M385 272v8M355 292v8M365 292v8M375 292v8M385 292v8M355 312v8M365 312v8M375 312v8M385 312v8M395 232v8M405 232v8M415 232v8M395 252v8M405 252v8M415 252v8M395 272v8M405 272v8M415 272v8M395 292v8M405 292v8M415 292v8M395 312v8M405 312v8M415 312v8M658 232v8M668 232v8M678 232v8M658 252v8M668 252v8M678 252v8M658 272v8M668 272v8M678 272v8M658 292v8M668 292v8M678 292v8M658 312v8M668 312v8M678 312v8M658 152v8M668 152v8M678 152v8M658 172v8M668 172v8M678 172v8M658 192v8M668 192v8M678 192v8M658 212v8M668 212v8M678 212v8M658 232v8M668 232v8M678 232v8M688 112v8M698 112v8M688 132v8M698 132v8M688 152v8M698 152v8M688 172v8M698 172v8M688 192v8M698 192v8M688 212v8M698 212v8M688 232v8M698 232v8M688 252v8M698 252v8M688 272v8M698 272v8M688 292v8M698 292v8M688 312v8M698 312v8M658 112v8M668 112v8M678 112v8M702 75v8M712 75v8M672 75v8M682 75v8M692 75v8M702 55v8M712 55v8M672 55v8M682 55v8M692 55v8M787 55v8M797 55v8M757 55v8M767 55v8M777 55v8M787 75v8M797 75v8M757 75v8M767 75v8M777 75v8M787 95v8M797 95v8M757 95v8M767 95v8M777 95v8M787 115v8M797 115v8M757 115v8M767 115v8M777 115v8M797 135v8M757 135v8M767 135v8M777 135v8M757 155v8M767 155v8M777 155v8M757 175v8M767 175v8M777 175v8M757 195v8M767 195v8M777 195v8M757 215v8M767 215v8M777 215v8M757 235v8M767 235v8M777 235v8M757 255v8M767 255v8M777 255v8M757 275v8M767 275v8M777 275v8M757 275v8M767 275v8M777 275v8M757 295v8M767 295v8M777 295v8M757 315v8M767 315v8M777 315v8M797 175v8M797 195v8M807 195v8M817 195v8M797 215v8M807 215v8M817 215v8M797 235v8M807 235v8M817 235v8M797 255v8M807 255v8M817 255v8M797 275v8M807 275v8M817 275v8M797 295v8M807 295v8M817 295v8M797 315v8M807 315v8M817 315v8M658 132v8M668 132v8M678 132v8M658 152v8M668 152v8M678 152v8M502 232v8M512 232v8M512 212v8M492 252v8M502 252v8M512 252v8M492 272v8M502 272v8M512 272v8M492 292v8M502 292v8M512 292v8M492 312v8M502 312v8M512 312v8M886 195v8M896 195v8M906 195v8M886 215v8M896 215v8M906 215v8M886 235v8M896 235v8M906 235v8M886 255v8M896 255v8M906 255v8M886 275v8M896 275v8M906 275v8M886 295v8M896 295v8M906 295v8M886 315v8M896 315v8M906 315v8M941 255v8M951 255v8M961 255v8M941 275v8M951 275v8M961 275v8M941 295v8M951 295v8M961 295v8M941 315v8M951 315v8M961 315v8M1053 275v8M1063 275v8M1073 275v8M1053 295v8M1063 295v8M1073 295v8M1053 315v8M1063 315v8M1073 315v8M1083 275v8M1093 275v8M1103 275v8M1083 295v8M1093 295v8M1103 295v8M1083 315v8M1093 315v8M1103 315v8M1113 275v8M1123 275v8M1113 295v8M1123 295v8M1113 315v8M1123 315v8"/>
    </g>
</svg>
