<svg xmlns="http://www.w3.org/2000/svg" width="473" height="241" viewBox="0 0 473 241">
    <g fill="none" fill-rule="evenodd">
        <path fill="#3F3D56" fill-rule="nonzero" d="M109.878 22.991a15.589 15.589 0 0 0-1.022-3.906 1.769 1.769 0 0 0-.9-1.107c-.293-.076-.6-.08-.894-.01l-4.587.7a1.76 1.76 0 0 0-1.047.407c-.597.627-.009 1.637-.027 2.502-.02.973-.887 1.763-1.826 2.025a6.913 6.913 0 0 1-2.9-.036l-6.415-.995a10.576 10.576 0 0 0 4.853-3.233c.844-.998 1.293-2.862.073-3.335a3 3 0 0 0-1.114-.089c-2.906.023-5.193-2.4-7.913-3.42a8.758 8.758 0 0 0-9.847 2.93l3.417.165c.321-.017.64.068.91.243.748.614-.182 1.794-.077 2.755.137 1.25 1.799 1.517 3.052 1.643 1.252.126 2.842 1.142 2.24 2.246-6.297 2.165-12.705-4.232-19.317-3.445-1.674.2-3.254.856-4.888 1.269-9.981 2.52-20.3-4.206-30.497-2.781a38.777 38.777 0 0 0-6.657 1.753c-1.388.454-2.836.946-3.844 2.001s-1.392 2.86-.437 3.962a22.374 22.374 0 0 1-7.828-.742 4.377 4.377 0 0 1 2.254 3.858 46.505 46.505 0 0 0-11.898 3.622 20.01 20.01 0 0 0 2.462 3.276L0 38.587c1.758.442 2.667 2.836 1.645 4.33 1.823-.81 2.953-2.904 4.903-3.329 1.277-.278 2.576.244 3.788.734 1.212.49 2.543.965 3.798.597 1.254-.368 2.18-1.991 1.382-3.026a64.997 64.997 0 0 1 16.485-2.571 2.07 2.07 0 0 1 1.249.237c.726.503.535 1.59.496 2.472-.04.883.65 2.042 1.44 1.644-.93.805-.136 2.319.756 3.165.891.846 1.966 2.013 1.42 3.113-.142.287-.384.517-.521.807-.405.855.238 1.852.995 2.42.758.568 1.686.965 2.212 1.752.526.787.287 2.163-.654 2.273l-2.674-3.39a6.948 6.948 0 0 0-1.807 3.418c2.836 2.315 3.263 7.027.888 9.812-1.213 1.423-2.94 2.288-4.445 3.398-1.506 1.11-2.9 2.691-2.896 4.56.006 3.23-.258 6.23.954 9.223a141.97 141.97 0 0 0 7.726 16.092c.764 1.364 1.752 2.86 3.3 3.095a189.925 189.925 0 0 1-5.284-14.49c1.02.005 2.199.086 2.797.91.495.684.389 1.613.543 2.442.195.803.522 1.57.966 2.267l9.344 16.618c.774 1.377 1.663 2.856 3.143 3.414.947.356 2.042.29 2.913.803.683.402 1.143 1.117 1.84 1.496 1.968 1.072 4.705-.984 6.545.296.526.366.86.947 1.345 1.366 1.699 1.469 4.486.486 6.447 1.582 1.264.706 1.92 2.118 2.593 3.398 1.69 3.206 4.422 6.347 8.041 6.602 1.137.08 2.298-.135 3.41.118 1.11.252 2.205 1.22 2.026 2.344-.305 1.927.648 4.037.392 5.97-.466 3.523-5.471 5.07-5.901 8.598-.094.772.053 1.57-.131 2.325-.226.927-.923 1.681-1.17 2.602-.47 1.745.783 3.482 2.158 4.656 1.376 1.174 3.017 2.186 3.77 3.83.794 1.737.404 3.763.663 5.655.564 4.131 4.138 7.194 7.817 9.168 1.12.602 2.324 1.185 3.049 2.228.947 1.363.852 3.159 1.169 4.786.774 3.987 4.135 7.271 4.23 11.331.069 2.886-1.538 5.503-2.498 8.226a19.155 19.155 0 0 0 1.57 15.91c.717 1.21 1.576 2.35 2.084 3.663.906 2.34.612 5.002 1.448 7.37 1.105 3.13 4.14 5.715 3.85 9.02 1.378 2.858 4.421 4.262 7.482 5.112l5.484 1.524c1.05.292 2.148.586 3.217.375 1.07-.211 2.09-1.098 2.062-2.186-2.69-.605-5.465-1.249-7.682-2.885-2.217-1.636-3.736-4.55-2.895-7.172.39-1.215 1.22-2.619.431-3.623-.452-.575-1.278-.725-1.787-1.25-.795-.818-.522-2.193.05-3.18.57-.987 1.397-1.868 1.627-2.985a3.113 3.113 0 0 0-1.462-3.24 7.756 7.756 0 0 0 2.714-1.74c.714-.813 1.044-2.068.483-2.993 1.667.211 3.636.314 4.73-.96.875-1.016.815-2.537.47-3.832-.346-1.295-.93-2.553-.948-3.893 3.847.182 7.703.052 11.529-.39a7.465 7.465 0 0 0-3.505-4.382c1.732-.293 3.311-2.364 3.858-4.031.548-1.667.408-3.483.07-5.205a2.788 2.788 0 0 1-.052-1.363c.195-.621.806-1 1.371-1.324l8.601-4.931a5.01 5.01 0 0 0 1.375-1.014c.901-1.057.768-2.652.307-3.96-.462-1.31-1.2-2.54-1.379-3.917-.531-4.117 3.883-7.07 5.372-10.945.585-1.52.704-3.173.817-4.798.122-1.745.13-3.772-1.212-4.897-1.286-1.078-3.297-.838-4.643-1.84-1.234-.92-1.66-2.705-3.009-3.448-1.224-.674-2.76-.245-4.121-.562-2.399-.559-3.908-3.318-6.357-3.574-1.382-.144-2.945.53-4.078-.273-.998-.708-1.038-2.13-1.228-3.338a9.33 9.33 0 0 0-7.537-7.548c-1.424-.228-2.975-.142-4.187-.923-1.228-.792-1.79-2.274-2.754-3.37-1.554-1.766-4.001-2.394-6.294-2.932l-9.324-2.188c-1.655-.389-3.789-.595-4.677.853a6.683 6.683 0 0 0-.553 1.737 5.387 5.387 0 0 1-5.068 3.808 5.991 5.991 0 0 0-3.534-2.73c-.945-.263-1.957-.292-2.859-.68a4.004 4.004 0 0 1-1.743-5.562 4.985 4.985 0 0 0-.854-6.003c-1.586-1.422-3.88-1.765-6.006-1.623-.557-1.213.375-2.581 1.378-3.463 1.003-.882 2.222-1.748 2.44-3.065.344-2.07-2.303-3.643-4.312-3.026-2.01.618-3.292 2.566-4.14 4.487-.486 1.102-.9 2.263-1.667 3.192-.768.93-2.003 1.594-3.172 1.296-1.655-.422-2.294-2.384-2.66-4.05-.491-2.234-.985-4.5-.882-6.785.103-2.285.874-4.631 2.562-6.178 2.75-2.521 6.97-2.274 10.682-1.872-.877-.986-.66-2.649.278-3.577a4.08 4.08 0 0 1 3.693-.906 5.09 5.09 0 0 1 2.86 1.708c1.056 1.284 1.356 3.017 2.153 4.475.797 1.457 2.59 2.7 4.057 1.918 1.268-.675 1.47-2.43 1.154-3.83-.316-1.399-.986-2.76-.871-4.189.218-2.728 3.05-4.37 5.55-5.494 2.5-1.123 5.362-2.634 5.758-5.342.014-.53.114-1.055.297-1.553.277-.44.662-.802 1.119-1.05 7.296-4.814 14.712-9.686 23.05-12.316.435-.137.486.015.928-.092.618-.357.208-1.345-.385-1.743-.593-.398-1.386-.703-1.537-1.4-.11-.513.192-1.016.271-1.535.193-1.274-1.334-2.45-2.52-1.941-.67-.886.656-1.915 1.728-2.21a46.977 46.977 0 0 1 9.854-1.607c.384-.06.778.006 1.12.19.56.388.49 1.276.092 1.828-.396.553-1.013.9-1.508 1.367a4.105 4.105 0 0 0-1.067 4.133c1.74.884 3.63 1.793 5.558 1.482 1.927-.311 3.637-2.472 2.731-4.199-.843-1.607-3.377-1.97-3.812-3.731-.51-2.063 2.414-3.898 1.755-5.918-.288-.885-1.172-1.406-1.85-2.045a5.541 5.541 0 0 1-1.216-6.151 7.019 7.019 0 0 1-6.149-1.922c-1.47-1.481-2.644-3.819-4.732-3.753-1.917.061-3.568 2.293-5.36 1.612-.44-.167-.905-.508-1.333-.308a1.1 1.1 0 0 0-.497.824c-.455 2.173.328 4.65-.859 6.528-1.291 2.045-4.278 2.328-5.844 4.171-.85 1-1.179 2.349-1.96 3.404-.78 1.055-2.439 1.725-3.376.806a4.641 4.641 0 0 0-1.265-5.65 12.427 12.427 0 0 0-2.792-1.356 16.57 16.57 0 0 1-3.12-1.735 3.07 3.07 0 0 1-1.145-1.224 2.784 2.784 0 0 1 .078-1.934 7.92 7.92 0 0 1 6.306-5.218c1.248-.17 2.7-.11 3.527-1.06.437-.502.666-1.261 1.3-1.465.406-.082.828-.03 1.201.147l4.66 1.637c.519.235 1.091.33 1.659.275a1.124 1.124 0 0 0 .973-1.181c-.15-.772-1.34-1.143-1.231-1.922.06-.253.196-.48.39-.654a16.67 16.67 0 0 1 13.21-5.208c.588.964-.342 2.105-1.116 2.929-.774.823-1.395 2.293-.46 2.927.384.195.81.291 1.24.279 1.148.155 2.263.492 3.302 1 1.61.699 3.19 1.464 4.737 2.295-.136-1.019-.267-2.092.12-3.045.387-.953 1.486-1.7 2.447-1.33.925.358 1.4 1.582 2.386 1.694 1.316.15 1.835-1.79 1.285-2.993-.55-1.203-1.637-2.21-1.728-3.528-.061-.89.278-1.993-.434-2.532a1.94 1.94 0 0 0-.84-.294l-17.772-3.265c-1.055-.193-2.58-.045-2.627 1.025-.026.598.509 1.189.272 1.738-.253.586-1.083.533-1.687.74-.939.322-1.41 1.434-1.32 2.42.166.98.546 1.911 1.114 2.727-1.156-.482-2.906-.571-4.062-1.054zM95.623 7.322c-2.264-.839-4.755-.004-6.235 2.09-.288.426-.53 1.013-.29 1.473.347.66 1.23.4 1.88.164a4.253 4.253 0 0 1 2.97-.08c.61.235 1.157.65 1.77.876.61.285 1.31.17 1.82-.297.42-.481.447-1.229.448-1.902a1.653 1.653 0 0 0-.348-1.258 1.648 1.648 0 0 0-.806-.266A2.728 2.728 0 0 1 95.21 7.06M102.488 5.003c-.491-.037-.962.28-1.24.836-.279.556-.326 1.27-.124 1.885a4.24 4.24 0 0 0 2.281.204c.778-.166 1.407-.955 1.595-2.001-.898.223-1.825-.019-2.6-.68M123.066 2.94A27.216 27.216 0 0 0 117 5a4.557 4.557 0 0 1 2.911 4.577c-.082.374-.072.762.028 1.132.222.54.868.742 1.436.88 1.02.311 2.084.447 3.149.403a3.208 3.208 0 0 0 2.607-1.593c.154-.438.335-.866.542-1.281 1.36-2.072 5.402.433 6.863-1.57.514-.705.467-1.766 1.138-2.325.347-.244.749-.397 1.17-.447a82.184 82.184 0 0 1 8.888-1.265c1.414-.123 3.256-.63 3.268-2.05a24.623 24.623 0 0 0-15.705 2.113c-1.75.877-4.066 2.72-5.752 1.558-.631-.435-.6-1.607-1.47-2.096-.888-.5-2.064-.297-3.007-.096z"/>
        <path fill="#3F3D56" fill-rule="nonzero" d="M140.886 5.477l2.51.481a3.255 3.255 0 0 0-2.49.995 3.244 3.244 0 0 0-.894 2.525c2.35.784 4.913.02 7.388.125 2.476.104 5.357 1.87 4.934 4.308-.127.737-.554 1.474-.332 2.188.155.501.598.857.847 1.318.52.961.105 2.177-.552 3.05-.657.875-1.54 1.572-2.117 2.5-1.435 2.31-.62 5.296.235 7.876a6.94 6.94 0 0 0 1.337 2.667c1.266 1.344 3.33 1.46 5.177 1.487 1.344.02 2.885-.046 3.735-1.087 1.11-1.358.334-3.477 1.065-5.07.664-1.449 2.355-2.07 3.888-2.51 2.807-.807 5.668-1.493 8.322-2.712 3.296-1.514 6.376-3.872 9.999-4.067 1.016-.055 2.057.065 3.036-.213.98-.278 1.909-1.123 1.835-2.137-.063-.866-.797-1.502-1.37-2.154-.574-.653-1.024-1.657-.497-2.348l9.495-1.77c-.673-1.832-1.198-4.244.349-5.436.558-.43 1.305-.602 1.78-1.122.81-.886.403-2.413-.532-3.166-.935-.754-2.199-.929-3.396-1.028-4.163-.345-8.35-.117-12.522.111l-24.462 1.339c-1.641.09-3.536-.048-5.042.512-1.274.473-2.18 1.342-3.638 1.647-2.691.564-5.653.182-8.088 1.69zM185.996 25.724a1.008 1.008 0 0 0-.71.156.854.854 0 0 0-.232.53c-.157.869.03 1.764.526 2.505a2.566 2.566 0 0 0 2.32 1.076c1.099-.136 1.909-1.042 2.919-1.485 1.556-.682 8.168-1.744 3.594-4.135-1.576-.824-2.594-.096-3.836.446a8.978 8.978 0 0 1-4.581.907zM226.42 5.396c-.541.194-.995.54-1.29.985-.28.469-.094 1.05.426 1.32.202.064.417.094.632.087l2.205.058c.937.025 2.107.2 2.358.992.187.588-.231 1.344.274 1.764.216.147.477.237.75.257a5.806 5.806 0 0 0 2.221.063c1.604-.378.762-1.237 1.267-2.002.773-1.17.639-.462 2.001-1.133 1.006-.496 2.306-1.394 1.466-2.657-1.46-2.196-10.155-.678-12.31.266zM270.131 4.23l-1.317.161c-2.969.364-5.954.731-8.814 1.55 1.238.449 2.537.742 3.86.87.729.032 1.453.127 2.163.282 1.263.345 2.535 1.236 3.756.78.756-.284 1.003-1.007 1.63-1.39.433-.265 2.074-.693 2.257-.96 1.484-2.16-2.395-1.433-3.535-1.293zM276.027 8.229a24.587 24.587 0 0 0-4.835 3.58c-.616.585-1.244 1.313-1.189 2.165.075 1.133 1.268 1.79 2.302 2.233L276.494 18c.508-.724.043-1.724-.482-2.435-.526-.712-1.15-1.535-.918-2.392.265-.977 1.443-1.31 2.432-1.478 1.61-.274 5.953-.252 5.43-2.876-.614-3.091-5.313-1.504-6.93-.59zM274.299 180.21c-.417 1.134-.457 2.47.264 3.46.81 1.112 2.43 1.526 3.83 1.244a6.96 6.96 0 0 0 3.557-2.148 11.465 11.465 0 0 0 2.046-2.948 21.93 21.93 0 0 0 1.516-5.213l1.36-6.71c.304-1.5.292-6.097-2.641-4.599-.801.41-2.656 3.64-3.496 4.556-1.513 1.651-1.714 3.254-2.51 5.254-.998 2.506-3.004 4.594-3.926 7.104zM422.397 214.206c-.776-.34-1.53-.743-2.254-1.206a23.728 23.728 0 0 0-1.143 7l5.311-3.378c.8-.508 1.705-1.215 1.688-2.246a.74.74 0 0 0-.294-.646.643.643 0 0 0-.372-.05c-.788.074-1.506.51-2.249.813-.743.303-1.612.463-2.293.013M454.365 216.015c-.702.173-1.389.394-2.052.664-1.468.673-2.467 1.951-3.789 2.838-1.264.848-2.786 1.314-4.28 1.767-.44.35-.238 1.055.239 1.363a3.237 3.237 0 0 0 1.69.342c1.552.03 3.188.044 4.548-.631a14.21 14.21 0 0 0 2.14-1.531c1.59-1.195 3.5-1.984 5.39-2.746a6.356 6.356 0 0 0 1.878-1.012c1.188-1.054 1.271-2.68-.441-3.039-1.384-.29-4.006 1.601-5.323 1.985zM469.294 206.358c.146-1.625-.418-3.232-1.528-4.358-.017 1.605-.062 3.315-.91 4.643-.604.945-1.551 1.584-2.213 2.485-.662.901-.955 2.329-.18 3.12.497.401 1.101.623 1.725.632 1.545.193 3.333.301 4.417-.887.591-.65.88-1.61 1.6-2.087.27-.12.51-.303.703-.536.298-.504-.176-1.168-.708-1.35-.533-.182-1.12-.096-1.656-.269-.535-.173-1.026-.814-.752-1.333M443.895 149.69a6.71 6.71 0 0 1-2.547.16c-1.413-.276-2.513-1.41-3.654-2.341-2.713-2.2-6.01-3.428-9.419-3.506-3.1-.062-6.23.833-9.275.208.199 1.18 1.146 2.063 2.156 2.589 1.01.525 2.126.79 3.14 1.305 1.627.832 2.916 2.262 3.633 4.025.327.813.533 1.698 1.028 2.408 1.013 1.451 2.931 1.77 4.625 1.651 2.208-.155 4.514-.831 6.568.045 1.571.67 2.696 2.136 4.008 3.275 1.312 1.139 3.16 1.985 4.667 1.163-3.212-1.108-5.375-4.312-5.338-7.908 1.477.144 5.733.088 5.504-2.586-.194-2.267-3.827-.732-5.096-.487zM423.454 167.374c.264-1.457 1.71-2.744 1.26-4.155-.312-.975-1.437-1.456-2.455-1.48-1.02-.025-2.02.28-3.038.31a14.727 14.727 0 0 0-1.99.028c-2.022.334-3.268 2.464-5.173 3.222-1.159.46-2.46.372-3.666.69-2.735.724-4.466 3.322-6.378 5.417a22.736 22.736 0 0 1-11.553 6.774c-1.555.362-3.227.594-4.463 1.609-1.637 1.345-2.04 3.65-2.404 5.744A95.267 95.267 0 0 1 379 202.486l6.495.833c1.235.159 2.514.314 3.704-.054a10.735 10.735 0 0 0 2.437-1.304 24.241 24.241 0 0 1 9.503-3.449c1.7-.235 3.484-.278 5.08.358 1.596.635 2.965 2.077 3.099 3.797a3.975 3.975 0 0 1 3.988.975 6.983 6.983 0 0 1 1.904 3.822c.171.893.342 1.963 1.167 2.338.672.306 1.444-.024 2.18-.083 2.497-.2 4.57 2.727 7.024 2.223 2.632-.541 3.278-4.504 5.846-5.298 1.475-.456 3.544.098 4.25-1.28.622-1.217-.62-2.62-.491-3.98.157-1.677 2.124-2.388 3.64-3.103 5.227-2.466 7.707-9.538 5.174-14.754-1.5-3.09-4.453-5.524-4.998-8.919-.42-2.612.604-5.658-1.052-7.714-.843-1.046-2.27-1.623-2.771-2.871-.316-.786-.19-1.677-.359-2.507-.17-.83-.89-1.698-1.705-1.483-2.366.625-3.121 7.973-4.388 9.759-1.926 2.714-5.88.926-5.273-2.418zM380.309 151.31c-.796-.244-1.664-.483-2.427-.136-.762.348-1.207 1.567-.595 2.172 4.785-.203 9.6-.405 14.345.304 5.467.816 10.877 2.837 16.368 2.242a77.55 77.55 0 0 0-9.548-2.414l-5.376-1.12c-1.442-.329-2.899-.574-4.365-.735-3.066-.276-5.387.608-8.402-.314zM384.743 135.923c-.411-.034-.92-.064-1.133.287-.203.335.03.778-.08 1.154-.15.513-.827.644-1.36.574-.534-.07-1.112-.237-1.585.018-.492.334-.704.95-.519 1.514.194.544.506 1.038.916 1.448.7.875 1.496 1.668 2.375 2.364 1.702 1.247 4.008 1.848 5.08 3.657.15.351.383.662.678.906.515.324 1.186.078 1.74-.173l1.942-.881c.35-.125.662-.336.908-.613.443-.597.17-1.446-.202-2.09-.372-.644-.849-1.31-.769-2.047.143-1.316 1.847-1.82 2.548-2.945.707-1.135.247-2.596.328-3.928.095-1.557 1.081-3.582-.505-4.745-1.348-.989-2.636-.075-3.604 1.016-2.041 2.302-3.006 4.795-6.758 4.484zM396.364 112.418c.672 1.228 2.074 1.96 2.807 3.156.795 1.296.704 2.97 1.566 4.226.885 1.289 2.665 1.973 3.161 3.44.542 1.6-.687 3.544.293 4.943.369.462.925.755 1.531.808a2.244 2.244 0 0 0 1.661-.529 2.16 2.16 0 0 0-.097-3.115c-.58-.504-1.412-.722-1.897-1.311-.252-.34-.42-.73-.491-1.14a7.133 7.133 0 0 1 .123-3.58c.13-.296.163-.622.095-.937-.218-.604-1.076-.647-1.679-.927-1.367-.637-1.334-2.477-1.095-3.91-.16.954-3.724-.67-4.097-1.21-.742-1.074-.338-3.145-.485-4.332-1.601.736-2.219 2.917-1.396 4.418zM361.088 132.13c-.627-.697-1.572-1.427-2.412-1.006-.641.32-.817 1.202-.566 1.87.306.65.777 1.208 1.367 1.62 1.752 1.436 3.638 2.732 5.166 4.4 2.734 2.986 4.182 7.016 7.156 9.766a4.021 4.021 0 0 0 2.253 1.212c.867.08 1.84-.47 1.94-1.33.081-.707-.415-1.34-.9-1.865-1.155-1.249-2.42-2.398-3.51-3.703a3.103 3.103 0 0 1-.898-1.862c-.005-.702.64-1.438 1.324-1.264-.833-.211-1.45-1.59-2.673-1.85-1.022-.216-1.269.412-2.485-.106-2.319-.988-4.138-4.075-5.762-5.882zM417.318 62.823c-.667-.199-1.323-.435-1.964-.705-1.727-.522-4.012.755-3.782 2.553.153 1.195 1.259 2 1.87 3.037.905 1.537.664 3.487.188 5.208a4.083 4.083 0 0 1-.654 1.482c-.439.47-.964.85-1.547 1.12a20.728 20.728 0 0 0-6.056 5.174 1.494 1.494 0 0 0-.365.693c-.083.607.524 1.05.867 1.556.762 1.125.212 2.639.287 3.998-.024.39.155.766.473.992.46.234 1.004-.164 1.253-.618.826-1.506.204-3.922 1.754-4.648.293-.138.649-.195.844-.455.31-.41.011-1.019.169-1.51.236-.738 1.239-.77 2.008-.738a11.34 11.34 0 0 0 3.917-.524 2.604 2.604 0 0 0 1.296-.756c.463-.581.422-1.408.33-2.148a29.234 29.234 0 0 0-3.42-10.496c1.361.174 2.842.326 4.017-.388.658-.4 1.447-1.594 1.12-2.408-.515-1.286-1.447-.203-2.605-.419zM239.632 82.682c.165.883.327 1.813.037 2.664-.29.85-1.202 1.561-2.063 1.3-.668-.202-1.054-.873-1.529-1.384-2.639-2.845-8.593-1.198-10.223-4.718-.665-1.437-.213-3.158-.667-4.674a4.166 4.166 0 0 0-4.219-2.862 8.678 8.678 0 0 0-2.427.724 61.284 61.284 0 0 1-16.085 4.017 13.232 13.232 0 0 0-3.09.562c-2.267.82-3.816 2.918-4.918 5.06-1.102 2.14-1.915 4.458-3.393 6.36-1.552 2-3.728 3.4-5.758 4.913a5.87 5.87 0 0 0-1.9 1.988c-.44.902-.414 1.952-.38 2.954l.415 12.18c.053 1.567.12 3.19.822 4.591.877 1.75 2.609 2.898 3.81 4.444a8.696 8.696 0 0 1 1.809 5.558c-.026.807-.106 1.76.523 2.267.382.247.83.376 1.286.37l16.498 1.348c2.903.237 6.119.627 8.014 2.835.894 1.042 1.612 2.54 2.982 2.652.588.048 1.16-.193 1.747-.24 1.482-.116 2.785 1.007 3.607 2.245a9.946 9.946 0 0 1 1.601 6.389c-.135 1.412-.573 2.784-.667 4.2-.36 5.384 4.211 10.062 4.3 15.458.052 3.174-1.457 6.14-2.928 8.954 2.374 3.591.43 8.374 1.375 12.573.897 3.983 4.223 7.102 5.052 11.1.38 1.83.401 4.083 2.018 5.026.709.345 1.495.502 2.283.456a30.133 30.133 0 0 0 13.705-3.116c1.999-.99 4.07-2.469 4.42-4.67.28-1.774-.62-3.759.297-5.304 1.08-1.822 3.85-1.678 5.44-3.079 2.58-2.272.568-6.606 1.614-9.879.94-2.942 4.174-4.505 5.777-7.145a12.687 12.687 0 0 0 1.343-3.634 51.767 51.767 0 0 0 1.366-9.268c.043-1.898.183-3.793.42-5.677 1.729-10.725 12.346-17.906 15.794-28.21.329-.983.484-2.294-.393-2.85a2.514 2.514 0 0 0-1.67-.175l-7.605.957c-.945.12-1.946.23-2.813-.162-.868-.391-1.49-1.487-1.03-2.32 1.292-2.336-1.365-5.289-2.545-7.683a113.356 113.356 0 0 0-11.307-18.311 1.86 1.86 0 0 1-.496-1.075l2.159.072c-.729-2.611-1.931-5.468-4.471-6.423-1.432-.538-3.017-.352-4.544-.27-4.374.24-9.064-.42-13.393-1.088z"/>
        <path fill="#3F3D56" fill-rule="nonzero" d="M253.027 24.701c1.145 1.215 2.427 2.503 4.084 2.715 2.926.374 5.03-2.65 6.368-5.276a2.579 2.579 0 0 0 2.692 2.385 5.316 5.316 0 0 0 2.025-.79 39.905 39.905 0 0 1 18.895-4.882 2.04 2.04 0 0 1 1.558-2.242c1.343-.266 2.553.894 3.201 2.1.648 1.205 1.052 2.602 2.081 3.505 1.03.902 3.023.863 3.43-.444.39-1.254-.918-2.324-2.004-3.064-1.087-.74-2.232-2.108-1.5-3.2 5.55-1.227 11.135-2.46 16.814-2.704a7.045 7.045 0 0 0 2.83-.487c.867-.425 1.555-1.389 1.322-2.325a6.411 6.411 0 0 1-6.689-2.52c7.88-.65 16.263-1.205 23.247 2.501.838 1.798-3.434 3.294-2.29 4.916.364.517 1.094.577 1.727.59 4.853.09 9.734.178 14.533-.555 1.753-.267 3.525-.645 5.285-.428 2.933.361 5.44 2.317 8.326 2.954 1.174.26 2.49.268 3.48-.414.99-.683 1.416-2.237.604-3.124 2.717-2.66 7.225-2.001 10.808-.727 3.584 1.273 6.979 3.327 10.771 3.611 2.72.204 5.478-.527 8.165-.062 1.689.292 3.26 1.042 4.911 1.504 3.122.872 6.424.688 9.665.73A67.76 67.76 0 0 1 431.5 23.76c1 .326 1.916.866 2.683 1.584.715.766 1.08 1.955.599 2.885l-7.94-1.16c.748 1.472 2.683 1.723 4.255 2.23 1.572.509 3.202 2.243 2.257 3.598-1.703-.542-3.246 1.16-4.107 2.725-.86 1.566-1.908 3.44-3.693 3.536-1.598.085-3.531-1.275-4.573-.06a31.165 31.165 0 0 1 3.674 5.87c1.03 2.143 1.763 4.843.372 6.77-.22.345-.551.602-.94.728-1.135.288-1.873-1.101-2.688-1.943-1.027-1.06-2.58-1.361-3.97-1.859-1.39-.497-2.855-1.476-2.963-2.948-.068-.915.416-1.767.772-2.613.599-1.427.861-2.972.766-4.516-.078-1.242-.427-2.534-1.32-3.402-.892-.868-2.434-1.143-3.392-.349-.447.371-.806.965-1.386.987-1.026.04-1.814-1.749-2.64-1.138a2.802 2.802 0 0 1-.38 1.874c-2.464 2.141-6.248 1.236-9.424 1.992a17.694 17.694 0 0 0-4.3 1.876c-.502.215-.93.574-1.228 1.031-.397.77.04 1.756.739 2.268a5.872 5.872 0 0 0 2.438.831c3.871.733 7.8 1.868 10.856 4.353 3.057 2.485 5.061 6.593 4.094 10.41l-7.635-7.29c.29 3.061.455 6.13.494 9.209a4.138 4.138 0 0 1-.242 1.771c-.545 1.202-2.02 1.606-3.312 1.871a2.595 2.595 0 0 0-1.992 3.322c.46 1.496 1.604 2.663 2.653 3.825 1.048 1.162 2.08 2.483 2.218 4.042.137 1.559-1.04 3.316-2.602 3.208-1.184-.082-2.063-1.142-2.568-2.215-.505-1.074-.806-2.27-1.565-3.182-2.297-2.761-7.457-1.578-9.515-4.522a4.649 4.649 0 0 0-.962 4.426c.957-.599 2.268-.042 2.987.828.72.87 1.059 1.986 1.624 2.964.762 1.319 1.975 2.488 2.082 4.008-.029.574-.019 1.15.029 1.723.189.92.967 1.582 1.507 2.351 1.256 1.791 1.194 4.25.385 6.282-.81 2.032-2.265 3.73-3.706 5.376-2.516 2.874-5.084 5.732-8.068 8.12-.851.681-1.76 1.35-2.29 2.303-.53.953-.557 2.29.258 3.014-.583.03-1.629.316-2.212.345a51.35 51.35 0 0 1-.133-7.03c-2.301-1.103-4.778 1.853-4.481 4.387.297 2.533 2.13 4.566 3.435 6.757.955 1.603 1.664 3.472 1.346 5.31-.32 1.837-1.96 3.533-3.82 3.37-2.957-.257-4.194-4.5-7.123-4.986a1.197 1.197 0 0 0-.77.077c-.435.238-.51.82-.535 1.314-.12 2.43-.224 4.956.725 7.195 1.388 3.277 4.975 6.03 4.222 9.507-4.052-1.883-6.16-6.424-7.116-10.787-.957-4.363-1.116-8.943-2.831-13.067-1.302 1.668-4.04.289-5.23-1.46-1.127-1.66-1.822-3.579-2.916-5.26-1.095-1.682-2.771-3.187-4.776-3.28-2.102-.096-3.925 1.345-5.528 2.707-1.319 1.12-2.672 2.284-3.443 3.833-1.121 2.253-.828 4.909-.882 7.424-.058 2.72-.635 5.59-2.49 7.58-1.855 1.992-5.278 2.685-7.324.89-1.068-.936-1.585-2.336-2.046-3.68a180.064 180.064 0 0 1-5.539-19.76c-.344 1.526-1.685 3.493-2.966 2.594a2.654 2.654 0 0 1-.683-.88c-2.39-4.047-6.815-6.475-11.286-7.93-4.471-1.456-9.176-2.135-13.597-3.735a34.45 34.45 0 0 1-7.054-3.51 5.54 5.54 0 0 0-.339 5.67c.98 1.736 3.2 2.74 5.1 2.133.982-.313 1.811-.995 2.785-1.33.975-.337 2.282-.172 2.708.766.408.898-.208 1.984.097 2.921.466 1.428 2.62 1.538 3.374 2.837.56.967.1 2.25-.7 3.03-.801.78-1.87 1.208-2.846 1.751-3.17 1.762-5.425 4.77-8.196 7.11-2.77 2.34-6.68 4.048-9.982 2.547.788-3.983-3.96-6.908-4.833-10.873-.288-1.305-.139-2.69-.55-3.963-.593-1.841-2.228-3.107-3.57-4.502a17.665 17.665 0 0 1-4.85-12.858c.073-1.638.374-3.304 0-4.9-.373-1.598-1.696-3.144-3.336-3.072-3.745.166-8.463.444-10.428-2.746-.701-1.139-1.006-2.807.008-3.68.715-.615 1.77-.557 2.71-.464l8.438.83c1.974.193 4.107.353 5.8-.678 1.694-1.03 2.428-3.768.86-4.98-1.146-.887-3.199-.84-3.532-2.248-.277-1.174 1.023-2.506.32-3.487-.503-.703-1.635-.508-2.32.02-.686.526-1.184 1.298-1.951 1.697-1.347.7-2.956.034-4.404-.42-1.449-.452-3.391-.49-4.094.854-.786 1.504.697 3.474-.083 4.98-1.03 1.993-4.523.859-5.97 2.573-1.662 1.966 1.13 4.898.57 7.41a4.619 4.619 0 0 1-4.548-.255 4.413 4.413 0 0 1-1.91-4.11c.14-1.13.73-2.284.334-3.352-.32-.863-1.187-1.377-1.993-1.823l-8.2-4.528c-.761 1.411.201 3.161 1.405 4.221s2.711 1.859 3.502 3.254a4.27 4.27 0 0 1-1.608 5.63.987.987 0 0 1-.813.142 1.133 1.133 0 0 1-.527-.708c-1.447-3.7-3.62-7.349-7.092-9.282-3.473-1.932-8.463-1.535-10.74 1.721-.541.773-.905 1.655-1.376 2.473-2.503 4.344-7.87 6.4-12.885 6.266a2.56 2.56 0 0 1-1.406-.33c-.81-.559-.774-1.746-.65-2.722l.527-4.144c.106-.832.259-1.752.918-2.272.929-.732 2.269-.27 3.452-.287a4.374 4.374 0 0 0 3.97-3.062 4.925 4.925 0 0 0-1.372-4.9c-.542-.51-1.27-1.149-.983-1.835.23-.384.62-.646 1.064-.716 2.125-.616 4.37-.778 6.46-1.506 2.09-.727 4.116-2.216 4.61-4.372.152-.66.221-1.46.815-1.788.298-.125.618-.19.941-.192a4.578 4.578 0 0 0 3.928-4.771c1.002-.7 2.405-.185 3.374.559.969.744 1.824 1.726 3.003 2.047 2.197.597 4.32-1.346 6.596-1.355.958-.004 1.949.334 2.85.01.913-.33 1.458-1.238 2.159-1.909.7-.67 1.93-1.08 2.578-.357l-.552-4.08a8.029 8.029 0 0 0 6.531-1.18l-7.122-2.404a1.549 1.549 0 0 1-.666-.356c-.518-.557-.003-1.425.418-2.059 1.007-1.515 1.176-4.011-.48-4.765-1.131-.515-2.429.103-3.514.707l-5.198 2.897c-.165.987 1.043 1.547 1.792 2.212a3.001 3.001 0 0 1-1.96 5.246c.694.901.94 2.068.669 3.172l-3.497.252c-.393.079-.8-.001-1.135-.222-.374-.332-.323-.913-.41-1.406-.21-1.188-1.374-2.021-2.562-2.235-1.189-.213-2.404.06-3.581.33-.5.18-1.049.168-1.54-.035a1.536 1.536 0 0 1-.608-.768c-.516-1.25-.034-2.72.794-3.789.83-1.069 1.963-1.85 2.982-2.74a17.367 17.367 0 0 0 5.168-8.01c1.925-.807 3.919-1.902 5.844-2.708a17.893 17.893 0 0 1 9.612-1.862l6.52.125c1.931.037 3.914.084 5.699.82 1.785.735 3.353 2.326 3.477 4.251.075.444-.083.894-.419 1.194a1.541 1.541 0 0 1-.824.185c-1.8.064-2.568.512-4.368.575zM201.017 44.934c.48-.44.664-1.104.48-1.72a3.364 3.364 0 0 0-3.408.626 5.6 5.6 0 0 0-.912 1.172c-.79 1.253-1.49 2.748-1.031 4.148.075.309.275.575.555.738.205.08.426.114.647.098.87 0 1.74-.053 2.603-.155.53-.063 1.147-.209 1.352-.688.27-.63-.383-1.344-.192-2.001.125-.294.314-.558.555-.773.242-.22.364-.538.328-.858-.077-.309-.563-.484-.738-.216"/>
        <path fill="#3F3D56" fill-rule="nonzero" d="M206.205 37.202a6.4 6.4 0 0 0-2.31-.162.92.92 0 0 0-.492.125.926.926 0 0 0-.304.491c-.338 1.214.215 2.515 1.27 2.99.278.07.544.19.788.353.654.567.237 1.725.36 2.639.14 1.026 1.028 1.888.866 2.91-.129.804-.898 1.442-.774 2.248.13.844 1.088 1.097 1.851 1.165.443.087.899.028 1.312-.168a2.29 2.29 0 0 0 .828-1.34 9.533 9.533 0 0 0 .387-3.234 3.356 3.356 0 0 0-.326-1.427 7.778 7.778 0 0 0-.762-.976c-1.464-1.903.077-4.74-2.694-5.614z"/>
        <path stroke="#8FC9F2" stroke-width="2" d="M420 186s-124.455-71.778-178.034-58.178c0 0-113.55 12.278-126.71 39.29 0 0-36.096-113.334-49.256-117.112" opacity=".8"/>
        <path stroke="#8FC9F2" stroke-width="2" d="M115.255 167.215C136.123 111.613 324.121 50 324.121 50c-26.696 6.762-82.155 78.144-82.155 78.144S124.656 42.862 66 50.75c0 0 258.31 8.453 354 135.249" opacity=".8"/>
        <circle cx="65.5" cy="50.5" r="5.5" fill="#8FC9F2" fill-rule="nonzero"/>
        <circle cx="115.5" cy="166.5" r="5.5" fill="#8FC9F2" fill-rule="nonzero"/>
        <circle cx="324.5" cy="49.5" r="5.5" fill="#8FC9F2" fill-rule="nonzero"/>
        <circle cx="419.5" cy="185.5" r="5.5" fill="#8FC9F2" fill-rule="nonzero"/>
        <circle cx="242.5" cy="127.5" r="5.5" fill="#8FC9F2" fill-rule="nonzero"/>
    </g>
</svg>
