<svg xmlns="http://www.w3.org/2000/svg" width="175" height="219" viewBox="0 0 175 219">
    <defs>
        <linearGradient id="a" x1="49.999%" x2="49.999%" y1="100.003%" y2="0%">
            <stop offset="0%" stop-color="gray" stop-opacity=".25"/>
            <stop offset="54%" stop-color="gray" stop-opacity=".12"/>
            <stop offset="100%" stop-color="gray" stop-opacity=".1"/>
        </linearGradient>
    </defs>
    <g fill="none" fill-rule="evenodd" transform="translate(-.028)">
        <path fill="#6C63FF" fill-rule="nonzero" d="M159.36 22.922a23.972 23.972 0 0 1 8.974 16.38 1.89 1.89 0 0 0 1.938 1.697l2.91-.085a1.902 1.902 0 0 0 1.37-.637c.348-.392.517-.91.467-1.43-1.552-16.332-15.714-28.573-32.177-27.813a1.905 1.905 0 0 0-1.358.66 1.887 1.887 0 0 0-.445 1.439l.324 2.88c.108.98.958 1.71 1.948 1.675a24.176 24.176 0 0 1 16.049 5.234z"/>
        <path fill="#6C63FF" fill-rule="nonzero" d="M156.92 25.372a24.54 24.54 0 0 0-16.023-5.362 1.93 1.93 0 0 0-1.857 2.144l.246 2.192c.11.987.955 1.728 1.95 1.71 9.484-.167 17.568 6.84 18.739 16.242.117.99.971 1.728 1.97 1.701l2.206-.063a1.927 1.927 0 0 0 1.866-2.13c-.727-6.467-4-12.38-9.097-16.434z"/>
        <path fill="#6C63FF" fill-rule="nonzero" d="M147.27 37.292c2.634 2.228 4.383 5.425 4.902 8.957.139 1.022.974 1.773 1.947 1.75l1.055-.033a1.874 1.874 0 0 0 1.41-.73c.35-.445.504-1.029.422-1.603-1.32-9.537-9.02-16.61-18.101-16.633a1.854 1.854 0 0 0-1.405.685c-.355.43-.522.999-.46 1.566l.118 1.117c.116 1.025.934 1.797 1.907 1.8 2.986.043 5.873 1.142 8.204 3.124zM15.696 22.922a23.972 23.972 0 0 0-8.974 16.38 1.89 1.89 0 0 1-1.939 1.697l-2.91-.085a1.902 1.902 0 0 1-1.37-.637 1.884 1.884 0 0 1-.467-1.43C1.59 22.514 15.751 10.273 32.214 11.033a1.905 1.905 0 0 1 1.358.66c.341.398.502.919.444 1.439l-.324 2.875a1.887 1.887 0 0 1-1.947 1.675 24.176 24.176 0 0 0-16.05 5.24z"/>
        <path fill="#6C63FF" fill-rule="nonzero" d="M18.135 25.372A24.54 24.54 0 0 1 34.16 20.01a1.93 1.93 0 0 1 1.856 2.144l-.245 2.192a1.926 1.926 0 0 1-1.95 1.71c-9.485-.167-17.568 6.84-18.74 16.242a1.931 1.931 0 0 1-1.969 1.701l-2.207-.063a1.927 1.927 0 0 1-1.865-2.13c.727-6.467 4-12.38 9.096-16.434z"/>
        <path fill="#6C63FF" fill-rule="nonzero" d="M27.786 37.292c-2.634 2.228-4.384 5.425-4.903 8.957-.138 1.022-.974 1.773-1.946 1.75l-1.055-.033a1.874 1.874 0 0 1-1.41-.73 2.119 2.119 0 0 1-.423-1.603C19.37 36.096 27.07 29.023 36.151 29c.538.006 1.049.255 1.404.685.356.43.523.999.46 1.566l-.118 1.117c-.115 1.025-.934 1.797-1.906 1.8-2.987.043-5.874 1.142-8.205 3.124z"/>
        <path fill="#535461" fill-rule="nonzero" d="M81.028 216.748V5.464c0-3.018 2.417-5.464 5.4-5.464h3.2c2.982 0 5.4 2.446 5.4 5.464v211.284c-.006 3.003-14 3.003-14 0z"/>
        <rect width="106" height="87" x="35.028" y="43" fill="url(#a)" fill-rule="nonzero" rx="43.5"/>
        <rect width="103" height="85" x="36.028" y="43" fill="#FFF" fill-rule="nonzero" rx="42.5"/>
        <path fill="#E0E0E0" fill-rule="nonzero" d="M93.152 79.552a1.318 1.318 0 0 1 1.318 1.312v11.272a1.318 1.318 0 0 1-1.318 1.312H82.9a1.318 1.318 0 0 1-1.318-1.312V80.864c.001-.724.59-1.31 1.318-1.312h10.254m0-.552H82.9a1.868 1.868 0 0 0-1.873 1.864v11.272c0 1.03.838 1.864 1.873 1.864h10.254a1.868 1.868 0 0 0 1.873-1.864V80.864c0-1.03-.839-1.864-1.873-1.864z"/>
        <path stroke="#6C63FF" stroke-linecap="round" stroke-width="2" d="M88.028 83v4M88.704 85.023c1.016.574 1.53 1.807 1.246 2.987-.285 1.18-1.295 2.002-2.446 1.99-1.152-.012-2.146-.854-2.41-2.04-.263-1.185.273-2.407 1.3-2.96"/>
    </g>
</svg>
