<svg xmlns="http://www.w3.org/2000/svg" width="396" height="282" viewBox="0 0 396 282">
    <g fill="none" fill-rule="nonzero">
        <path fill="#F2F2F2" d="M380.159 65L221 133.353l22.934 63.195 16.391 45.158 4.12 11.358 36.677 13.91 1.327.501L340.76 282l18.391-7.86 25.055-10.76L396 258.315z"/>
        <path fill="#2F2E41" d="M384 256.67l-.033 1.652-.091 4.907-25.174 10.848-17 7.325-.717-2.404-.762 3.002-38.495-14.643-.596-14.136v-.004l-.132-3.142L376.412 245l1.479 2.272.292.451z"/>
        <path fill="#FFB8B8" d="M330.153 107.5s-5.07 18-6.085 18c-1.014 0 9.635 14 9.635 14l15.72 8.5L355 125s-5.07-12.5-4.057-19l-20.79 1.5z"/>
        <circle cx="337.5" cy="95.5" r="18.5" fill="#FFB8B8"/>
        <path fill="#6C63FF" d="M341.012 134.649l-14.96-12.99-8.823 4.389L298 138.19s5.06 109.279 2.53 113.326c0 0 5.566 12.648 38.458 5.06 32.892-7.59 41.494-8.601 41.494-8.601l-7.084-66.782L382 139.202 353.104 119l-9.056 15.649h-3.036z"/>
        <path fill="#FFB8B8" d="M286.11 177s-7.677 23.757-2.047 26.284c5.63 2.527 10.236 1.516 10.236 1.516L303 184.076 286.11 177zM390.28 173l4.72 21.085v42.67s-6.819 27.11-12.064 20.082c-5.245-7.029-5.137-9.254-5.137-9.254l6.71-9.823-3.147-40.161L373 178.44 390.28 173z"/>
        <path fill="#2F2E41" d="M356.514 77.465s-6.057-13.02-17.666-10.015c-11.608 3.004-18.17 7.511-18.675 12.017-.504 4.507.253 11.267.253 11.267s1.262-9.264 9.337-7.26c8.076 2.002 20.694.5 20.694.5L352.476 102s2.271-3.255 4.795-1.252c2.523 2.003 7.318-19.278-.757-23.283z"/>
        <path fill="#3F3D56" d="M373 177.162l1.852 9.838L393 182.08l-3.333-9.08zM285.816 177L283 186.607 300.795 191l1.205-9.651z"/>
        <path fill="#6C63FF" d="M370.436 139l11.223.994s12.687 35.304 11.223 36.298c-1.464.995-19.03 6.962-21.47 5.47-2.44-1.492-.976-42.762-.976-42.762zM300.96 139.01l-4.079-1.01s-7.648 9.596-10.198 20.707c-2.549 11.111-6.118 22.222-4.079 22.222C284.644 180.93 303 188 303 188l-2.04-48.99z"/>
        <circle cx="342.5" cy="138.5" r="3.5" fill="#3F3D56"/>
        <path fill="#E6E6E6" d="M370 202.663L330.941 215 315 164.337c15.05-2.115 28.07-6.227 39.059-12.337 2.036 17.281 7.24 34.182 15.941 50.663z"/>
        <path fill="#FFF" d="M367 208.663L327.941 221 312 170.337c15.05-2.115 28.07-6.227 39.059-12.337 2.036 17.281 7.24 34.182 15.941 50.663z"/>
        <path fill="#FFB8B8" d="M286.808 189.074s-6.085 10.96-4.564 14.446c1.522 3.487 14.2 5.48 15.72 5.48 1.522 0 19.778-3.985 19.778-3.985s27.892-12.952 19.778-19.429c-8.114-6.476-23.327 8.967-23.327 8.967h-12.171l-6.593-4.483-8.62-.996z"/>
        <path fill="#F2F2F2" d="M1 45h66v30H1z"/>
        <path fill="#3F3D56" d="M229 141h11v10h-11zM206 141h11v10h-11z"/>
        <path fill="#6C63FF" d="M252 119h11v11h-11z"/>
        <path fill="#3F3D56" d="M241 131h11v11h-11zM218 131h11v11h-11z"/>
        <path fill="#6C63FF" d="M82 150h11v10H82z"/>
        <path fill="#3F3D56" d="M185 140h11v11h-11zM116 140h11v11h-11zM104 129h11v11h-11zM162 140h11v11h-11zM150 129h11v11h-11zM139 140h11v11h-11zM93 140h11v11H93z"/>
        <path fill="#6C63FF" d="M174 129h11v11h-11z"/>
        <path fill="#3F3D56" d="M224.274 111L218 104.274 224.726 98l6.274 6.726-6.726 6.274zM219 104.309l5.309 5.691 5.691-5.309L224.691 99 219 104.309zM145 85h-9v-9h9v9zm-8.308-.692h7.616v-7.616h-7.616v7.616zM307 68h-9v-9h9v9zm-8.308-.692h7.616v-7.616h-7.616v7.616zM86.262 157l-.511-.505a26.477 26.477 0 0 0 5.24-9.265c1.74-5.289 2.59-13.642-3.24-23.4-5.966-9.983-6.234-18.092-5.41-23.136.899-5.49 3.19-8.566 3.287-8.694l.568.439c-.023.03-2.294 3.09-3.156 8.415-.795 4.917-.518 12.83 5.322 22.603 5.98 10.007 5.094 18.592 3.298 24.032-1.946 5.894-5.258 9.366-5.398 9.511zM178.262 133l-.511-.505a26.477 26.477 0 0 0 5.24-9.265c1.74-5.289 2.59-13.642-3.24-23.4-5.966-9.983-6.234-18.092-5.41-23.136.899-5.49 3.19-8.566 3.287-8.694l.568.439c-.023.03-2.294 3.09-3.156 8.415-.795 4.917-.518 12.83 5.322 22.603 5.98 10.007 5.094 18.592 3.298 24.032-1.946 5.894-5.258 9.366-5.398 9.511zM257.262 124l-.511-.505a26.477 26.477 0 0 0 5.24-9.265c1.74-5.289 2.59-13.642-3.24-23.4-5.966-9.983-6.234-18.092-5.41-23.136.899-5.49 3.19-8.566 3.287-8.694l.568.439c-.023.03-2.294 3.09-3.156 8.415-.795 4.917-.518 12.83 5.322 22.603 5.98 10.007 5.094 18.592 3.298 24.032-1.946 5.894-5.258 9.366-5.398 9.511zM18 55h32v1H18zM18 59h32v1H18zM18 65h32v1H18zM196 6h32v1h-32zM196 12h32v1h-32zM196 16h32v1h-32zM270 118h32v1h-32zM270 123h32v1h-32zM270 129h32v1h-32zM71 169h32v1H71zM71 174h32v1H71zM71 179h32v1H71z"/>
        <path fill="#2F2E41" d="M47 37.578c5.493-12.432 13.772-20.61 24.608-24.306 8.044-2.745 17.348-3.004 27.652-.771a73.56 73.56 0 0 1 21.605 8.467c35.77 20.944 57.885 21.13 70.138 17.598 13.435-3.872 18.352-12.959 18.4-13.05l.597.319c-.05.094-5.078 9.418-18.785 13.379-7.902 2.283-17.135 2.378-27.442.28-12.828-2.61-27.379-8.645-43.248-17.937a72.893 72.893 0 0 0-21.407-8.39c-16.9-3.662-39.553-2.352-51.501 24.688L47 37.578z"/>
        <circle cx="87" cy="80" r="12" fill="#3F3D56"/>
        <circle cx="180" cy="58" r="12" fill="#3F3D56"/>
        <circle cx="258" cy="48" r="12" fill="#3F3D56"/>
        <path fill="#3F3D56" d="M76 76H0V38h76v38zM.682 75.333h74.636V38.667H.682v36.666z"/>
        <path fill="#F2F2F2" d="M95 20h66v30H95z"/>
        <path fill="#3F3D56" d="M113 30h32v1h-32zM113 34h32v1h-32zM112 39h32v1h-32z"/>
        <path fill="#3F3D56" d="M171 50H95V12h76v38zm-75.318-.667h74.636V12.667H95.682v36.666z"/>
        <path fill="#F2F2F2" d="M265 9h66v30h-66z"/>
        <path fill="#3F3D56" d="M282 18h32v1h-32zM282 23h32v1h-32zM282 28h32v1h-32z"/>
        <path fill="#3F3D56" d="M341 38h-76V0h76v38zm-75.318-.667h74.636V.667h-74.636v36.666z"/>
    </g>
</svg>
