<svg xmlns="http://www.w3.org/2000/svg" width="387" height="313" viewBox="0 0 387 313">
    <defs>
        <linearGradient id="a" x1="50.007%" x2="50.007%" y1="99.987%" y2="-.019%">
            <stop offset="0%" stop-color="gray" stop-opacity=".25"/>
            <stop offset="54%" stop-color="gray" stop-opacity=".12"/>
            <stop offset="100%" stop-color="gray" stop-opacity=".1"/>
        </linearGradient>
    </defs>
    <g fill="none" fill-rule="nonzero">
        <rect width="232" height="279" x="94" y="6" fill="#464353" rx="19.8"/>
        <path fill="#FFF" stroke="#FFF" d="M115 32h192v223H115z" opacity=".1"/>
        <circle cx="211" cy="272" r="8" fill="#FFF"/>
        <path fill="#FFF" d="M209.977 26a4 4 0 1 1 .047-8 4 4 0 0 1-.047 8z"/>
        <path fill="#FFF" d="M210 18.442a3.558 3.558 0 1 1 .044 7.116 3.558 3.558 0 0 1-.044-7.116m0-.442a4 4 0 1 0 0 8 4 4 0 0 0 0-8z"/>
        <path fill="#8FC9F2" d="M206.997 75v-8.002h6.001V75h6.101V63.002H223L209.998 51 197 63.002h3.896V75z"/>
        <path fill="#FFF" stroke="#FFF" d="M143.212 111.775v-8.888c0-1.042-.767-1.887-1.712-1.887s-1.712.845-1.712 1.887v8.888c-1.388.859-2.076 2.643-1.674 4.341.402 1.699 1.794 2.884 3.386 2.884s2.984-1.185 3.386-2.884c.402-1.698-.286-3.482-1.674-4.341zm-2.304-8.888c.026-.334.28-.59.584-.59.304 0 .557.256.583.59v1.993h-1.167v-1.993z"/>
        <path fill="#8FC9F2" d="M167 109h108v2H167z" opacity=".3"/>
        <circle cx="200.5" cy="110.5" r="2.5" fill="#8FC9F2"/>
        <path fill="#8FC9F2" d="M168 109h33v2h-33z"/>
        <path fill="#FFF" stroke="#FFF" d="M142.602 154.718a.652.652 0 0 0-.662-.585.657.657 0 0 0-.65.502l-.653 3.688a1.483 1.483 0 0 0-.027.283c0 .77.601 1.394 1.343 1.394s1.343-.624 1.343-1.394a1.443 1.443 0 0 0-.045-.339l-.649-3.549zm5.084 1.584a1.75 1.75 0 0 0-.22-.157l-2.649-1.896a.522.522 0 0 0-.684.037.477.477 0 0 0-.072.614l2.04 2.624c.04.062.085.12.135.172.415.372 1.03.372 1.446 0a.945.945 0 0 0 .303-.697c0-.266-.11-.52-.303-.697h.004zm1.79-2.708l-2.484-.093a.292.292 0 0 0-.33.242c-.02.15.061.295.196.353l2.404.706c.349.079.738-.088.738-.464 0-.465-.13-.702-.524-.748v.004zm-12.343.502a.336.336 0 0 0 .197-.353.296.296 0 0 0-.336-.242l-2.48.093c-.398.047-.514.274-.514.744 0 .371.38.543.725.464l2.403-.71.005.004zm2.027.149l-2.65 1.89a1.438 1.438 0 0 0-.214.158.945.945 0 0 0-.303.697c0 .267.11.52.303.697a1.041 1.041 0 0 0 1.58-.168l2.04-2.615a.477.477 0 0 0-.071-.613.527.527 0 0 0-.703-.046h.018zM141.998 142s1.163 1.394 1.163 2.569a1.902 1.902 0 0 1-.463 1.402c-.335.38-.808.6-1.304.604a1.851 1.851 0 0 1-1.348-.592 1.997 1.997 0 0 1-.532-1.414v-.274a7.803 7.803 0 0 0-1.674 4.863c0 2.376 1.855 4.302 4.144 4.302 2.29 0 4.145-1.926 4.145-4.302 0-2.898-1.379-6.294-4.15-7.158h.019zm-.148 9.848c-.91.01-1.657-.746-1.67-1.691-.001-.864.627-1.589 1.455-1.677a3.993 3.993 0 0 0 2.4-1.394c.202.706.305 1.438.303 2.174 0 1.427-1.114 2.583-2.488 2.583v.005z"/>
        <path fill="#8FC9F2" d="M167 149h108v2H167z" opacity=".3"/>
        <circle cx="225.5" cy="149.5" r="2.5" fill="#8FC9F2"/>
        <path fill="#8FC9F2" d="M168 149h59v2h-59z"/>
        <path fill="#FFF" stroke="#FFF" d="M140.053 197.218c.003.43.344.78.765.782h3.36a.778.778 0 0 0 .764-.782v-.7h-4.889v.7zM142.498 183c-3.045 0-5.498 2.34-5.498 5.236a5.182 5.182 0 0 0 2.347 4.319v1.695a.785.785 0 0 0 .241.542.75.75 0 0 0 .545.208h4.73a.75.75 0 0 0 .545-.208.785.785 0 0 0 .24-.542v-1.695a5.173 5.173 0 0 0 2.352-4.319c0-2.895-2.458-5.236-5.502-5.236z"/>
        <path fill="#8FC9F2" d="M167 189h108v2H167z" opacity=".3"/>
        <circle cx="253.5" cy="190.5" r="2.5" fill="#8FC9F2"/>
        <path fill="#8FC9F2" d="M168 189h87v2h-87z"/>
        <path fill="#FFF" stroke="#FFF" d="M138 220v8.613h2.333V236l4.667-9.849h-2.333L145 220z"/>
        <path fill="#8FC9F2" d="M167 227h108v2H167z" opacity=".3"/>
        <circle cx="200.5" cy="228.5" r="2.5" fill="#8FC9F2"/>
        <path fill="#8FC9F2" d="M168 227h33v2h-33z"/>
        <ellipse cx="99" cy="297.5" fill="#8FC9F2" rx="27" ry="5.5"/>
        <ellipse cx="99" cy="296" fill="#3F3D56" rx="3" ry="4"/>
        <ellipse cx="99" cy="291" fill="#3F3D56" rx="3" ry="4"/>
        <ellipse cx="99" cy="285" fill="#3F3D56" rx="3" ry="4"/>
        <ellipse cx="99" cy="280" fill="#3F3D56" rx="3" ry="4"/>
        <ellipse cx="99" cy="276" fill="#3F3D56" rx="3" ry="4"/>
        <ellipse cx="99" cy="270" fill="#3F3D56" rx="3" ry="4"/>
        <ellipse cx="99" cy="265" fill="#3F3D56" rx="3" ry="4"/>
        <path fill="#8FC9F2" d="M111.789 230.249a15.48 15.48 0 0 0 1.167-1.716l-8.232-1.355 8.9.067a15.006 15.006 0 0 0 .286-11.868l-11.93 6.187 11.007-8.084a15.006 15.006 0 0 0-13.709-7.463 15.001 15.001 0 0 0-12.925 8.747 14.963 14.963 0 0 0 1.86 15.48 15.284 15.284 0 0 0-1.71 2.71l10.682 5.541-11.387-3.789a14.972 14.972 0 0 0 2.415 14.064c-4.834 6.14-4.13 14.957 1.615 20.256 5.746 5.299 14.604 5.299 20.35 0 5.745-5.299 6.448-14.117 1.615-20.256a14.968 14.968 0 0 0 0-18.517l-.004-.004z"/>
        <path fill="#000" d="M85 240.222a15.1 15.1 0 0 0 3.207 9.338c-4.834 6.193-4.13 15.087 1.616 20.432a14.923 14.923 0 0 0 20.354 0c5.746-5.345 6.45-14.239 1.616-20.432C113.8 246.991 85 238.528 85 240.222z" opacity=".1"/>
        <ellipse cx="41.5" cy="253" fill="#8FC9F2" rx="41.5" ry="8"/>
        <ellipse cx="42" cy="249.5" fill="#3F3D56" rx="5" ry="6.5"/>
        <ellipse cx="42" cy="242.5" fill="#3F3D56" rx="5" ry="6.5"/>
        <ellipse cx="42" cy="234.5" fill="#3F3D56" rx="5" ry="6.5"/>
        <ellipse cx="42" cy="226.5" fill="#3F3D56" rx="5" ry="6.5"/>
        <ellipse cx="42" cy="218.5" fill="#3F3D56" rx="5" ry="6.5"/>
        <ellipse cx="42" cy="210.5" fill="#3F3D56" rx="5" ry="6.5"/>
        <ellipse cx="42" cy="202.5" fill="#3F3D56" rx="5" ry="6.5"/>
        <path fill="#8FC9F2" d="M24.031 150.247a23.447 23.447 0 0 1-1.832-2.637l12.893-2.07-13.938.103a22.674 22.674 0 0 1-.458-18.249l18.703 9.509-17.237-12.433c4.41-7.448 12.69-11.862 21.465-11.443 8.775.42 16.578 5.603 20.228 13.436 3.65 7.833 2.538 17.008-2.884 23.784a22.797 22.797 0 0 1 2.676 4.2l-16.729 8.533 17.838-5.87c2.542 7.37 1.119 15.5-3.785 21.618 7.577 9.442 6.478 23.007-2.524 31.158-9.003 8.152-22.884 8.152-31.887 0-9.002-8.151-10.1-21.716-2.524-31.158a22.685 22.685 0 0 1 0-28.481h-.005z"/>
        <path fill="#000" d="M66 164.34a22.771 22.771 0 0 1-5.04 14.283c7.576 9.468 6.478 23.072-2.524 31.246-9.001 8.175-22.882 8.175-31.883 0-9.002-8.174-10.1-21.778-2.524-31.246C20.877 174.69 66 161.75 66 164.34z" opacity=".1"/>
        <ellipse cx="342" cy="303.5" fill="#8FC9F2" opacity=".1" rx="45" ry="9.5"/>
        <path fill="url(#a)" d="M325.787 304.503c.027.231.085.457.173.673a3.842 3.842 0 0 0 1.49 2.053c.368.211.767.364 1.183.452 2.786.663 5.682.451 8.528.736 2.846.284 5.86 1.02 8.67.225.672-.19 1.363-.537 1.636-1.218a.723.723 0 0 0 .04-.131c2.042.261 4.092.451 6.047-.095.668-.19 1.364-.537 1.636-1.219.105-.352.137-.722.096-1.088-.082-1.9-.173-3.827-.755-5.628a15.733 15.733 0 0 0-.777-1.9 36.094 36.094 0 0 0-1.455-2.776l-.16-.293c.383.167.756.347 1.124.541a94.212 94.212 0 0 0 3.677-15.982 55.81 55.81 0 0 0-.563-19.35 27.363 27.363 0 0 1-.455-6.45c.187-4.301 1.191-8.508 2.191-12.687.51-2.107 1.017-4.227 1.523-6.36l2.173-9.063c.482-2.009.964-4.063.814-6.13a15.923 15.923 0 0 0-.673-3.33 38.246 38.246 0 0 0-1.91-5.12.869.869 0 0 0 .642-.13c.15-.156.25-.352.286-.564l1.146-4.099c.804-2.87 1.61-5.763 1.818-8.742.25-3.372-.263-6.77-.373-10.129-.14-4.387.396-8.788.11-13.166a53.225 53.225 0 0 0-.278-2.83c.05-.496.064-.993.077-1.49.073-2.446.046-4.887-.859-7.144a9.933 9.933 0 0 0-2.996-4.126c.041-.203.087-.401.128-.604l.954-4.514c1.055-5.006 2.119-10.133 1.514-15.22-.54-4.513-2.673-9.1-6.282-11.51l-.032-.022-.387-.244-.068-.04a5.73 5.73 0 0 0-.363-.203l-.091-.05a5.313 5.313 0 0 0-.455-.226 14.442 14.442 0 0 0-3.637-1.078l-.5-.077c-.498-.078-1-.13-1.504-.154h-.505a10.591 10.591 0 0 0-1.505.09c-.186 0-.368.055-.554.09l-.546.114a23.16 23.16 0 0 1-3.291.681c-.21 0-.423.027-.632.032-.632 0-1.264-.04-1.9-.077-.314 0-.632-.027-.946-.027a7.535 7.535 0 0 0-1.56.14 6.595 6.595 0 0 0-2.454 1.124c-.539.39-1.038.831-1.491 1.318-.368.393-.714.806-1.037 1.237-.15.198-.295.401-.454.613l-.21.32c-.131.222-.258.452-.377.669a8.544 8.544 0 0 0-.454 1.047 4.972 4.972 0 0 0-.205 2.93c.055.206.122.41.2.609a11.411 11.411 0 0 0-1.25 5.23c0 4.966 3.119 9.154 7.406 10.536.522.956 1.159 2.175 1.69 3.358a12.166 12.166 0 0 0-2.904 2.915c-2.664-.149-5.292 1.96-6.137 4.618a8.338 8.338 0 0 0-.323 3.16c-.555 2.22-.582 4.621-.632 6.941-.077 3.656-.268 7.303-.455 10.955-.186 3.651-.377 7.27-.568 10.909-.054 1.042-.109 2.09-.245 3.123-.669.176-.7 1.083-.623 1.806.209 1.927.55 3.877.768 5.813a9.534 9.534 0 0 0-.186 3.652l.386.171a14.532 14.532 0 0 1-.545 3.688 1.319 1.319 0 0 1-.291.59 1.98 1.98 0 0 1 .604-.148c-.577 1.887-1.036 3.818-1.713 5.674-.35.956-.76 1.895-1.06 2.875-.263.93-.475 1.873-.636 2.825a13.665 13.665 0 0 0-.241 1.661 6.985 6.985 0 0 0 2.396 5.714c0 .37-.028.736-.028 1.106 0 2.64.391 5.272.296 7.908-.127 3.552-.768 6.915-.787 10.471-.059 9.84 2.66 19.458 5.851 28.707a265.967 265.967 0 0 0 4.023 10.89c.837 2.131 1.782 4.514.882 6.604.305-.122.605-.234.91-.343a9.473 9.473 0 0 1-2.083 3.16 8.791 8.791 0 0 1-5.218 2.45c-.95.104-1.928.05-2.833.38-.904.33-1.727 1.196-1.636 2.193zm11.62-51.057a43.536 43.536 0 0 1 5.582-14.39l.027.294c.146 1.453.414 2.907.705 4.356.609 3.05 1.323 6.097 1.214 9.162-.115 3.248.077 6.5.572 9.713.15 1.257.455 2.491.91 3.674.3.704.69 1.354.909 2.095a9.94 9.94 0 0 1 .363 2.595 92.745 92.745 0 0 1-1.327 21.615c-.314 0-.514.05-.518.09a9.74 9.74 0 0 1-1.241 3.458l-.055-.1c-.109-.189-.223-.405-.34-.622l.376.059c-1.04-2.23-.945-4.83-.99-7.312a66.856 66.856 0 0 0-1.032-10.043 58.106 58.106 0 0 0-4.615-14.525 11.313 11.313 0 0 1-.909-3.06 20.438 20.438 0 0 1 .368-7.06zm18.752-53.712c-.171-.23-.355-.45-.55-.659-.455-.482-1-1.042-.864-1.701.069-.259.2-.497.382-.695a9.96 9.96 0 0 1 1.209-1.26l.145-.126c-.109 1.472-.216 2.947-.322 4.428v.013z"/>
        <path fill="#8FC9F2" d="M362.666 168l.522 3.81c.175 1.292.35 2.58.445 3.877.318 4.316-.27 8.651-.118 12.977.123 3.33.682 6.655.412 9.98-.242 2.934-1.123 5.788-2.005 8.615l-1.252 4.039a1.051 1.051 0 0 1-.313.556 1.158 1.158 0 0 1-.8.121l-5.557-.448c.356-1.544.749-3.141.948-4.725.152-1.239.242-2.486.337-3.734.294-3.886.63-7.772.948-11.667l.592-6.82c.252-2.962.512-5.937 1.3-8.814.785-2.914 2.349-5.59 4.541-7.767z"/>
        <path fill="#000" d="M362.666 168l.522 3.81c.175 1.292.35 2.58.445 3.877.318 4.316-.27 8.651-.118 12.977.123 3.33.682 6.655.412 9.98-.242 2.934-1.123 5.788-2.005 8.615l-1.252 4.039a1.051 1.051 0 0 1-.313.556 1.158 1.158 0 0 1-.8.121l-5.557-.448c.356-1.544.749-3.141.948-4.725.152-1.239.242-2.486.337-3.734.294-3.886.63-7.772.948-11.667l.592-6.82c.252-2.962.512-5.937 1.3-8.814.785-2.914 2.349-5.59 4.541-7.767z" opacity=".1"/>
        <path fill="#A26565" d="M352.437 297.799c.3.617.563 1.253.787 1.905.585 1.8.673 3.732.76 5.633.039.366.006.736-.096 1.089-.253.683-.979 1.03-1.656 1.217-2.837.797-5.827.05-8.742-.224-2.916-.273-5.796-.073-8.611-.733a4.279 4.279 0 0 1-1.194-.433 3.862 3.862 0 0 1-1.508-2.051 2.771 2.771 0 0 1-.17-.675c-.092-1.002.743-1.868 1.652-2.196.91-.328 1.902-.278 2.859-.379 4.053-.432 7.323-3.649 7.972-7.843.035-.218 4.739-.086 5.246.196.577.333.926 1.158 1.254 1.718a40.58 40.58 0 0 1 1.447 2.776z"/>
        <path fill="#000" d="M352.437 297.799c.3.617.563 1.253.787 1.905.585 1.8.673 3.732.76 5.633.039.366.006.736-.096 1.089-.253.683-.979 1.03-1.656 1.217-2.837.797-5.827.05-8.742-.224-2.916-.273-5.796-.073-8.611-.733a4.279 4.279 0 0 1-1.194-.433 3.862 3.862 0 0 1-1.508-2.051 2.771 2.771 0 0 1-.17-.675c-.092-1.002.743-1.868 1.652-2.196.91-.328 1.902-.278 2.859-.379 4.053-.432 7.323-3.649 7.972-7.843.035-.218 4.739-.086 5.246.196.577.333.926 1.158 1.254 1.718a40.58 40.58 0 0 1 1.447 2.776z" opacity=".1"/>
        <path fill="#A26565" d="M344.435 298.816c.303.614.566 1.248.787 1.898.59 1.82.678 3.727.761 5.625.04.366.008.736-.096 1.088-.25.682-.975 1.028-1.653 1.22-2.837.791-5.831.045-8.743-.228-2.911-.273-5.801-.073-8.612-.733a4.101 4.101 0 0 1-1.193-.455 3.84 3.84 0 0 1-1.509-2.048 2.764 2.764 0 0 1-.17-.674c-.092-.996.743-1.865 1.652-2.193.91-.328 1.902-.273 2.86-.378 4.051-.433 7.32-3.642 7.973-7.828.035-.218 4.74-.09 5.246.192.582.332.931 1.156 1.26 1.715.498.924.987 1.853 1.437 2.8z"/>
        <path fill="#454B69" d="M323.001 250.06c-.064 9.79 2.82 19.357 6.203 28.54a259.36 259.36 0 0 0 4.266 10.831c.89 2.12 1.896 4.476.941 6.569 2.755-1.033 5.556-1.64 8.453-1.164-1.102-2.22-.996-4.802-1.047-7.248a62.739 62.739 0 0 0-1.083-9.99 55.212 55.212 0 0 0-4.954-14.446 10.901 10.901 0 0 1-.96-3.044c-.377-2.329-.083-4.72.409-7.027a41.579 41.579 0 0 1 5.923-14.315l.027.29c.172 1.457.42 2.904.744 4.335.647 3.031 1.405 6.066 1.29 9.115-.12 3.233.084 6.47.606 9.663.169 1.254.5 2.481.988 3.651.316.702.73 1.36.978 2.089.248.839.378 1.708.385 2.582.368 7.37 0 14.854-1.524 22.08 2.557-.2 5.115.53 7.402 1.662a88.944 88.944 0 0 0 3.902-15.9 52.137 52.137 0 0 0-.596-19.236 25.225 25.225 0 0 1-.483-6.41c.198-4.28 1.263-8.467 2.324-12.625l1.616-6.343c.765-3.02 1.53-6.026 2.296-9.02.51-1.997 1.024-4.04.863-6.097a14.956 14.956 0 0 0-.716-3.316 36.804 36.804 0 0 0-5.083-10.256c-8.848.49-17.802-.326-26.631-.997a1.807 1.807 0 0 0-1.25.209c-.3.301-.48.7-.504 1.123l-3.32 18.574a46.063 46.063 0 0 0-.919 7.837c0 2.628.414 5.246.313 7.869-.161 3.533-.84 6.877-.859 10.415z"/>
        <path fill="#000" d="M342 239.634c.177 1.467.432 2.924.766 4.366 1.982-3.308 4.12-6.534 5.945-9.924.473-.871.917-1.756 1.366-2.641l1.348-2.647c.25-.497.501-.994.728-1.5.37-.728.654-1.494.847-2.282-.662-.119-2.298 1.606-2.79 2.058a37.291 37.291 0 0 0-2.838 3.03 33.403 33.403 0 0 0-3.007 3.74 17.825 17.825 0 0 0-2.365 5.8z" opacity=".1"/>
        <path fill="#EE8E9E" d="M335 149.75s4.793 7.28 3.906 8.805C338.019 160.079 354 157.2 354 157.2s-8.703-7.28-7.811-10.33c.89-3.048-11.189 2.879-11.189 2.879z"/>
        <ellipse cx="338.5" cy="142" fill="#EE8E9E" rx="10.5" ry="11"/>
        <path fill="#8FC9F2" d="M333.966 159.462a11.165 11.165 0 0 1 4.633-3.695 16.743 16.743 0 0 1 3.294-.802l4.397-.765c1.075-.189 2.228-.364 3.23.072.507.257.969.593 1.367.995 1.527 1.4 3.007 2.935 4.926 3.745.524.22 1.07.383 1.594.603 2.146.9 3.75 2.818 4.657 4.951.956 2.224.984 4.641.91 7.058a12.26 12.26 0 0 1-.25 2.485c-.219.779-.498 1.54-.833 2.278a41.298 41.298 0 0 0-1.513 4.825 151.41 151.41 0 0 0-2.843 13.053 4.85 4.85 0 0 1-.551 1.8 6.508 6.508 0 0 1-1.522 1.446 9.449 9.449 0 0 0-1.271 1.246c-.19.192-.33.427-.406.685-.141.648.456 1.206.911 1.678a8.106 8.106 0 0 1 2.06 3.543c.228.274.345.622.328.977-.095.246-.131.511-.105.774.09.239.231.455.415.635.425.547.59 1.249.455 1.926a31.246 31.246 0 0 1-10.789 2.494c-.911.045-1.822.045-2.734.153-.647.08-1.284.211-1.931.288-.94.087-1.883.11-2.825.072-4.907-.1-9.956-.22-14.462-2.143-.423-2.282.492-4.609 1.067-6.86.91-3.6 1.139-7.287 1.822-10.92.456-2.48 1.14-4.924 1.526-7.422.388-2.498.479-5.086-.218-7.517-.615-2.151-.802-4.348-1.44-6.495-.638-2.147-1.084-4.474-.365-6.599.893-2.62 3.659-4.712 6.466-4.564z"/>
        <path fill="#454B69" d="M330.142 136.186c-.531-1.929.512-3.939 1.754-5.508 1.349-1.686 3.067-3.206 5.176-3.628 1.713-.346 3.49.072 5.235-.068 1.542-.121 3.026-.679 4.56-.899a14.449 14.449 0 0 1 4.173.158c1.306.194 2.583.55 3.8 1.06 4.632 2.055 7.344 7.118 7.974 12.14.63 5.022-.45 10.085-1.57 15.026l-.994 4.469c-1.034 4.653-2.068 9.325-2.343 14.081-.274 4.757.239 9.64 2.195 13.983a30.077 30.077 0 0 1-13.82-15.642c-.701-1.839-1.223-3.75-2.006-5.557-.67-1.555-1.529-3.03-2.122-4.617a14.995 14.995 0 0 1-.95-5.607c.037-1.439.275-2.868.235-4.307-.04-1.439-.41-2.936-1.404-3.979-.899-.922-2.136-1.349-3.273-1.947a13.63 13.63 0 0 1-4.583-3.821c-.715-.936-.756-1.35-.936-2.41-.18-1.061-.823-1.907-1.101-2.927z"/>
        <path fill="#EE8E9E" d="M330.302 218.084c-.116 1.138.094 2.285-.158 3.414-.191.84-.635 1.6-.896 2.422-.258.95-.391 1.928-.396 2.91-.038.823.028 1.828.774 2.212.327.17.718.17 1.059.316.34.146.63.543.434.854-.196.31-.532.26-.84.32-.308.06-.639.37-.466.621.07.083.164.142.27.17.312.094.607.232.877.41a.87.87 0 0 1 .36.837.519.519 0 0 1-.293.347.537.537 0 0 1-.459-.009c.137.287.212.598.22.914-1.195.503-2.533-.155-3.653-.79a13.795 13.795 0 0 1-1.4-.878 6.799 6.799 0 0 1-2.723-5.835c.053-.561.142-1.118.266-1.668.172-.958.4-1.906.685-2.838.322-.982.76-1.919 1.139-2.883.802-2.052 1.32-4.2 2.047-6.279a.948.948 0 0 1 .35-.544c.16-.077.34-.11.518-.096a8.655 8.655 0 0 1 2.43.22c.467.137 1.264.457 1.483.914.22.457-.13.84-.34 1.22a10.087 10.087 0 0 0-1.288 3.72z"/>
        <path fill="#000" d="M329.096 162a3.308 3.308 0 0 0-.56.804c-1.504 2.821-1.522 6.193-1.592 9.412-.078 3.611-.27 7.223-.463 10.857l-.573 10.834c-.057 1.034-.11 2.067-.254 3.092-.673.176-.7 1.08-.625 1.806.485 4.415 1.688 8.96.437 13.209-.048.218-.149.42-.293.587a3.314 3.314 0 0 1 1.955-.028c.625.136 1.229.375 1.859.524.796.185 1.697.266 2.24.903a45.97 45.97 0 0 0 1.464-5.832c.298-1.806.38-3.666 1.09-5.336.284-.673.668-1.296 1.018-1.941 1.833-3.377 2.734-7.192 3.613-10.957.394-1.784.49-3.626.28-5.444-.127-.829-.2-1.666-.219-2.505.053-.886.166-1.767.337-2.637a18.22 18.22 0 0 0-.512-7.633c-.656-2.298-1.233-4.718-2.624-6.65-1.39-1.932-4.255-3.033-6.578-3.065z" opacity=".1"/>
        <path fill="#8FC9F2" d="M329.093 162c-.224.24-.413.512-.56.808-1.504 2.819-1.521 6.197-1.591 9.417-.079 3.613-.271 7.226-.464 10.839l-.572 10.839c-.057 1.034-.11 2.068-.254 3.093-.673.176-.7 1.08-.62 1.807.48 4.417 1.683 8.96.436 13.214-.048.218-.149.42-.293.587a3.311 3.311 0 0 1 1.955-.027c.625.136 1.229.375 1.859.52.795.19 1.696.266 2.238.903a45.536 45.536 0 0 0 1.465-5.84c.298-1.806.38-3.662 1.09-5.333.307-.665.647-1.313 1.018-1.942 1.837-3.378 2.733-7.2 3.612-10.966a16.51 16.51 0 0 0 .28-5.446c-.33-1.703-.29-3.46.118-5.144a18.216 18.216 0 0 0-.512-7.633c-.656-2.298-1.233-4.72-2.623-6.652-1.391-1.933-4.26-3.008-6.582-3.044z"/>
        <g fill="#000" opacity=".1">
            <path d="M331.012 130.965c1.323-1.698 3.009-3.227 5.078-3.653 1.68-.348 3.423.073 5.135-.067 1.513-.123 2.97-.684 4.474-.906a13.82 13.82 0 0 1 4.094.159 15.25 15.25 0 0 1 3.728 1.068c.645.296 1.26.655 1.84 1.072a15.376 15.376 0 0 0-3.296-.905 13.768 13.768 0 0 0-4.09-.158c-1.509.199-2.96.756-4.478.878-1.707.14-3.45-.276-5.135.068-2.07.425-3.763 1.96-5.074 3.656-1.222 1.575-2.24 3.598-1.725 5.544.274 1.023.91 1.919 1.081 2.973.172 1.055.216 1.485.922 2.426.905 1.207 2 2.252 3.238 3.091-.34-.163-.688-.326-1.019-.502a13.459 13.459 0 0 1-4.495-3.847c-.702-.941-.741-1.358-.918-2.426-.176-1.068-.807-1.946-1.08-2.973-.521-1.896.502-3.92 1.72-5.498zM338.997 147.714a4.446 4.446 0 0 0-.596-.53c1.02.507 2.092.95 2.873 1.81.975 1.046 1.323 2.557 1.376 4.005.053 1.449-.199 2.888-.23 4.331a15.471 15.471 0 0 0 .931 5.648c.583 1.598 1.425 3.078 2.083 4.648.763 1.81 1.275 3.738 1.963 5.589 2.206 5.844 6.122 10.843 11.21 14.31.027.059.049.122.075.18-6.206-3.419-11.015-9.004-13.557-15.744-.688-1.85-1.2-3.774-1.968-5.593-.657-1.566-1.5-3.05-2.082-4.648a15.448 15.448 0 0 1-.93-5.643c.034-1.448.268-2.888.229-4.336-.04-1.448-.402-2.987-1.377-4.027z"/>
        </g>
        <rect width="37" height="26" fill="#8FC9F2" opacity=".1" rx="9.15"/>
        <rect width="37" height="26" x="37" y="47" fill="#8FC9F2" opacity=".1" rx="9.15"/>
        <rect width="37" height="26" x="345" y="5" fill="#8FC9F2" opacity=".1" rx="9.15"/>
    </g>
</svg>
