<svg xmlns="http://www.w3.org/2000/svg" width="77" height="101" viewBox="0 0 77 101">
    <g fill="#FFF" fill-rule="evenodd">
        <g fill-rule="nonzero">
            <path d="M51.383 30.489a1.13 1.13 0 0 0-2.259 0v2.258a1.13 1.13 0 0 0 2.259 0V30.49zM46.866 37.264a1.13 1.13 0 0 0-2.258 0v2.259a1.13 1.13 0 0 0 2.258 0v-2.259zM51.383 37.264a1.13 1.13 0 0 0-2.259 0v2.259a1.13 1.13 0 0 0 2.259 0v-2.259zM42.349 30.489a1.13 1.13 0 0 0-2.258 0v2.258a1.13 1.13 0 0 0 2.258 0V30.49zM46.866 30.489a1.13 1.13 0 0 0-2.258 0v2.258a1.13 1.13 0 0 0 2.258 0V30.49zM51.383 19.197v-2.259a1.13 1.13 0 0 0-2.259 0v2.259a1.13 1.13 0 0 0 2.259 0zM42.349 37.264a1.13 1.13 0 0 0-2.258 0v2.259a1.13 1.13 0 0 0 2.258 0v-2.259zM55.9 16.938a1.13 1.13 0 0 0-2.259 0v2.259a1.13 1.13 0 0 0 2.259 0v-2.259z"/>
            <path d="M45.737 20.326a1.13 1.13 0 0 0 1.129-1.13v-4.763l11.292-2.824v18.88c0 .47.293.892.733 1.058l8.3 3.112v2.45a1.13 1.13 0 0 0 2.26 0v-3.233c0-.47-.293-.892-.734-1.058l-8.3-3.112V7.904a1.13 1.13 0 0 0-2.259 0v1.377l-12.696 3.174a1.128 1.128 0 0 0-.854 1.095v5.647c0 .623.505 1.129 1.129 1.129zM64.933 37.264a1.13 1.13 0 0 0-2.258 0v2.259a1.13 1.13 0 0 0 2.258 0v-2.259zM60.417 37.264a1.13 1.13 0 0 0-2.259 0v2.259a1.13 1.13 0 0 0 2.259 0v-2.259zM51.383 50.815a1.13 1.13 0 0 0-2.259 0v2.258a1.13 1.13 0 0 0 2.259 0v-2.258zM51.383 44.04a1.13 1.13 0 0 0-2.259 0v2.258a1.13 1.13 0 0 0 2.259 0v-2.259z"/>
            <path d="M54.77 63.236a1.13 1.13 0 0 0 1.13-1.13V25.973c0-.518-.354-.97-.855-1.095L36.977 20.36a1.13 1.13 0 0 0-1.403 1.095v17.95a1.13 1.13 0 0 0 2.258 0V22.903l15.81 3.952v35.253c0 .623.505 1.13 1.128 1.13zM28.798 23.714a1.13 1.13 0 0 0-2.258 0v2.258a1.13 1.13 0 0 0 2.258 0v-2.258zM28.798 16.938a1.13 1.13 0 0 0-2.258 0v2.259a1.13 1.13 0 0 0 2.258 0v-2.259zM9.47 33.772c.153 0 .573.035 1.261.104h11.292v28.23a1.13 1.13 0 0 0 2.259 0V32.748a1.13 1.13 0 0 0-1.13-1.129H9.602a1.13 1.13 0 0 0-1.13 1.13v-.118c0 .624.768 1.142.997 1.142zM22.023 23.714v2.258a1.13 1.13 0 0 0 2.259 0v-2.258a1.13 1.13 0 0 0-2.259 0zM28.798 10.163a1.13 1.13 0 0 0-2.258 0v2.258a1.13 1.13 0 0 0 2.258 0v-2.258z"/>
            <path d="M70.58 65.494H68.32v-4.638c1.942-.505 3.388-2.258 3.388-4.356a4.521 4.521 0 0 0-4.517-4.517 4.521 4.521 0 0 0-4.517 4.517c0 2.098 1.445 3.851 3.388 4.356v4.638h-28.23v-.036a5.656 5.656 0 0 0 4.516-5.532 5.653 5.653 0 0 0-5.646-5.646 5.653 5.653 0 0 0-5.646 5.646 5.656 5.656 0 0 0 4.517 5.532v.036H10.73v-6.81a5.656 5.656 0 0 0 4.517-5.533 5.653 5.653 0 0 0-5.646-5.646 5.653 5.653 0 0 0-5.646 5.646 5.656 5.656 0 0 0 4.517 5.532v6.811H5.085a1.13 1.13 0 0 0 0 2.259h65.494a1.13 1.13 0 0 0 0-2.259zM6.253 53.19a3.392 3.392 0 0 1 3.388-3.388 3.392 3.392 0 0 1 3.387 3.388 3.392 3.392 0 0 1-3.387 3.388 3.392 3.392 0 0 1-3.388-3.388zm27.062 6.736a3.392 3.392 0 0 1 3.388-3.387 3.392 3.392 0 0 1 3.388 3.387 3.392 3.392 0 0 1-3.388 3.388 3.392 3.392 0 0 1-3.388-3.388zM64.933 56.5a2.26 2.26 0 0 1 2.259-2.259A2.26 2.26 0 0 1 69.45 56.5a2.26 2.26 0 0 1-2.258 2.258 2.26 2.26 0 0 1-2.259-2.258zM33.315 30.489a1.13 1.13 0 0 0-2.258 0v2.258a1.13 1.13 0 0 0 2.258 0V30.49zM33.315 23.714a1.13 1.13 0 0 0-2.258 0v2.258a1.13 1.13 0 0 0 2.258 0v-2.258zM33.315 37.264a1.13 1.13 0 0 0-2.258 0v2.259a1.13 1.13 0 0 0 2.258 0v-2.259zM33.315 16.938a1.13 1.13 0 0 0-2.258 0v2.259a1.13 1.13 0 0 0 2.258 0v-2.259z"/>
            <path d="M18.636 29.36a1.13 1.13 0 0 0 1.129-1.13v-8.336l3.892-1.945a1.13 1.13 0 0 0 .625-1.01V7.472l5.646-2.823 5.646 2.823v9.465a1.13 1.13 0 0 0 2.258 0V6.775a1.13 1.13 0 0 0-.624-1.01L31.057 2.69V1.13a1.13 1.13 0 0 0-2.258 0v1.56l-6.151 3.075a1.13 1.13 0 0 0-.625 1.01v9.465l-3.892 1.946a1.13 1.13 0 0 0-.625 1.01v9.034c0 .624.506 1.13 1.13 1.13zM28.798 37.264a1.13 1.13 0 0 0-2.258 0v2.259a1.13 1.13 0 0 0 2.258 0v-2.259z"/>
            <path d="M33.315 10.163a1.13 1.13 0 0 0-2.258 0v2.258a1.13 1.13 0 0 0 2.258 0v-2.258zM28.798 30.489a1.13 1.13 0 0 0-2.258 0v2.258a1.13 1.13 0 0 0 2.258 0V30.49z"/>
            <g>
                <path d="M4.327 41.883a.884.884 0 0 0 0 1.23.844.844 0 0 0 1.207 0 5.818 5.818 0 0 1 8.326 0 .842.842 0 0 0 .602.254.842.842 0 0 0 .601-.255.884.884 0 0 0 0-1.229 7.497 7.497 0 0 0-10.736 0z"/>
                <path d="M6.578 44.207a.892.892 0 0 0 0 1.244.862.862 0 0 0 1.227 0 2.648 2.648 0 0 1 3.784 0c.168.171.39.259.611.259a.858.858 0 0 0 .612-.259.888.888 0 0 0 0-1.241 4.364 4.364 0 0 0-6.234-.003zM17.534 39.481c-4.261-4.5-11.192-4.5-15.453 0a.944.944 0 0 0 0 1.279.825.825 0 0 0 1.21 0c3.592-3.801 9.44-3.801 13.037 0a.83.83 0 0 0 .603.265.83.83 0 0 0 .603-.265.944.944 0 0 0 0-1.279z"/>
            </g>
            <g>
                <path d="M31.23 48.963a.884.884 0 0 0 0 1.229.844.844 0 0 0 1.206 0 5.818 5.818 0 0 1 8.327 0 .842.842 0 0 0 .601.255.842.842 0 0 0 .602-.255.884.884 0 0 0 0-1.23 7.497 7.497 0 0 0-10.736 0z"/>
                <path d="M33.48 51.286a.892.892 0 0 0 0 1.245.862.862 0 0 0 1.228 0 2.648 2.648 0 0 1 3.783 0 .858.858 0 0 0 1.224 0 .888.888 0 0 0 0-1.241 4.364 4.364 0 0 0-6.234-.004zM44.437 46.56c-4.261-4.5-11.192-4.5-15.453 0a.944.944 0 0 0 0 1.28.825.825 0 0 0 1.21 0c3.592-3.801 9.44-3.801 13.036 0a.83.83 0 0 0 .603.265.83.83 0 0 0 .604-.266.944.944 0 0 0 0-1.278z"/>
            </g>
            <g>
                <path d="M62.38 46.839a.884.884 0 0 0 0 1.229.844.844 0 0 0 1.207 0 5.818 5.818 0 0 1 8.326 0 .842.842 0 0 0 .602.255.842.842 0 0 0 .601-.255.884.884 0 0 0 0-1.23 7.497 7.497 0 0 0-10.736 0z"/>
                <path d="M64.631 49.162a.892.892 0 0 0 0 1.245.862.862 0 0 0 1.227 0 2.648 2.648 0 0 1 3.784 0 .858.858 0 0 0 1.224 0 .888.888 0 0 0 0-1.241 4.364 4.364 0 0 0-6.235-.004zM75.587 44.437c-4.26-4.5-11.192-4.5-15.453 0a.944.944 0 0 0 0 1.278.825.825 0 0 0 1.21 0c3.592-3.8 9.44-3.8 13.037 0a.83.83 0 0 0 .603.266.83.83 0 0 0 .603-.266.944.944 0 0 0 0-1.278z"/>
            </g>
        </g>
        <text font-family="Montserrat-Medium, Montserrat" font-size="28.319" font-weight="400" letter-spacing="-.354" transform="translate(-1)">
            <tspan x="0" y="94.965">city.ai</tspan>
        </text>
    </g>
</svg>
