<svg xmlns="http://www.w3.org/2000/svg" width="234" height="248" viewBox="0 0 234 248">
    <g fill="#99C8EA" fill-rule="nonzero">
        <path d="M157.525 111.395c0-2.277-1.595-4.126-3.56-4.126s-3.56 1.849-3.56 4.126v8.252c0 2.277 1.595 4.125 3.56 4.125s3.56-1.848 3.56-4.125v-8.252zM143.285 136.15c0-2.278-1.595-4.126-3.56-4.126s-3.56 1.848-3.56 4.126v8.251c0 2.277 1.595 4.126 3.56 4.126s3.56-1.849 3.56-4.126v-8.251zM157.525 136.15c0-2.278-1.595-4.126-3.56-4.126s-3.56 1.848-3.56 4.126v8.251c0 2.277 1.595 4.126 3.56 4.126s3.56-1.849 3.56-4.126v-8.251zM129.044 111.395c0-2.277-1.595-4.126-3.56-4.126s-3.56 1.849-3.56 4.126v8.252c0 2.277 1.595 4.125 3.56 4.125s3.56-1.848 3.56-4.125v-8.252zM143.285 111.395c0-2.277-1.595-4.126-3.56-4.126s-3.56 1.849-3.56 4.126v8.252c0 2.277 1.595 4.125 3.56 4.125s3.56-1.848 3.56-4.125v-8.252zM157.525 70.138v-8.252c0-2.277-1.595-4.125-3.56-4.125s-3.56 1.848-3.56 4.125v8.252c0 2.277 1.595 4.125 3.56 4.125s3.56-1.848 3.56-4.125zM129.044 136.15c0-2.278-1.595-4.126-3.56-4.126s-3.56 1.848-3.56 4.126v8.251c0 2.277 1.595 4.126 3.56 4.126s3.56-1.849 3.56-4.126v-8.251zM171.765 61.886c0-2.277-1.595-4.125-3.56-4.125s-3.56 1.848-3.56 4.125v8.252c0 2.277 1.595 4.125 3.56 4.125s3.56-1.848 3.56-4.125v-8.252z"/>
        <path d="M139.724 74.263c1.965 0 3.56-1.848 3.56-4.125V52.73l35.602-10.314v68.978c0 1.72.922 3.26 2.31 3.866l26.17 11.37v8.95c0 2.276 1.596 4.125 3.56 4.125 1.966 0 3.56-1.849 3.56-4.126v-11.808c0-1.72-.921-3.259-2.31-3.866l-26.17-11.37V28.88c0-2.277-1.595-4.126-3.56-4.126s-3.56 1.849-3.56 4.126v5.03l-40.027 11.597c-1.584.457-2.695 2.108-2.695 4.001v20.63c0 2.277 1.595 4.125 3.56 4.125zM200.246 136.15c0-2.278-1.595-4.126-3.56-4.126s-3.56 1.848-3.56 4.126v8.251c0 2.277 1.595 4.126 3.56 4.126s3.56-1.849 3.56-4.126v-8.251zM186.006 136.15c0-2.278-1.595-4.126-3.56-4.126s-3.56 1.848-3.56 4.126v8.251c0 2.277 1.595 4.126 3.56 4.126s3.56-1.849 3.56-4.126v-8.251zM157.525 185.658c0-2.277-1.595-4.125-3.56-4.125s-3.56 1.848-3.56 4.125v8.252c0 2.277 1.595 4.126 3.56 4.126s3.56-1.849 3.56-4.126v-8.252zM157.525 160.904c0-2.277-1.595-4.126-3.56-4.126s-3.56 1.849-3.56 4.126v8.252c0 2.277 1.595 4.125 3.56 4.125s3.56-1.848 3.56-4.125v-8.252z"/>
        <path d="M168.205 231.042c1.965 0 3.56-1.849 3.56-4.126V94.892c0-1.894-1.114-3.544-2.695-4.002l-56.962-16.503c-1.057-.31-2.193-.029-3.054.751-.866.78-1.37 1.98-1.37 3.251v65.585c0 2.277 1.594 4.125 3.56 4.125 1.964 0 3.56-1.848 3.56-4.125v-60.3l49.84 14.44v128.802c.001 2.277 1.596 4.126 3.561 4.126zM86.322 86.64c0-2.277-1.595-4.125-3.56-4.125s-3.56 1.848-3.56 4.126v8.251c0 2.277 1.595 4.126 3.56 4.126s3.56-1.849 3.56-4.126v-8.251zM86.322 61.886c0-2.277-1.595-4.125-3.56-4.125s-3.56 1.848-3.56 4.125v8.252c0 2.277 1.595 4.125 3.56 4.125s3.56-1.848 3.56-4.125v-8.252zM25.383 123.39c.483 0 1.809.127 3.978.382h35.6v103.144c0 2.277 1.596 4.125 3.56 4.125 1.966 0 3.56-1.848 3.56-4.125v-107.27c0-2.277-1.594-4.125-3.56-4.125h-42.72c-1.966 0-3.56 1.848-3.56 4.126v-.427c0 2.277 2.418 4.17 3.142 4.17zM64.962 86.64v8.252c0 2.277 1.595 4.126 3.56 4.126s3.56-1.849 3.56-4.126v-8.251c0-2.278-1.595-4.126-3.56-4.126s-3.56 1.848-3.56 4.126zM86.322 37.132c0-2.278-1.595-4.126-3.56-4.126s-3.56 1.848-3.56 4.126v8.251c0 2.278 1.595 4.126 3.56 4.126s3.56-1.848 3.56-4.126v-8.251z"/>
        <path d="M218.047 239.293h-7.12v-16.947c6.123-1.844 10.68-8.251 10.68-15.917 0-9.102-6.387-16.503-14.24-16.503-7.854 0-14.24 7.402-14.24 16.503 0 7.666 4.556 14.073 10.68 15.917v16.947h-89.003v-.132c8.113-1.918 14.24-10.248 14.24-20.212 0-11.375-7.985-20.629-17.8-20.629-9.816 0-17.802 9.254-17.802 20.629 0 9.964 6.127 18.294 14.24 20.212v.132H29.362v-24.886c8.113-1.919 14.24-10.249 14.24-20.213 0-11.374-7.985-20.628-17.8-20.628C15.984 173.566 8 182.82 8 194.194c0 9.964 6.127 18.294 14.24 20.213v24.886H11.56c-1.965 0-3.56 1.848-3.56 4.126 0 2.277 1.595 4.126 3.56 4.126h206.487c1.965 0 3.56-1.849 3.56-4.126s-1.595-4.126-3.56-4.126zM15.243 194.337c0-6.824 4.792-12.378 10.68-12.378 5.889 0 10.68 5.554 10.68 12.378s-4.791 12.377-10.68 12.377c-5.888 0-10.68-5.553-10.68-12.377zm85.32 24.612c0-6.824 4.792-12.377 10.68-12.377 5.889 0 10.68 5.553 10.68 12.377 0 6.824-4.791 12.377-10.68 12.377-5.888 0-10.68-5.553-10.68-12.377zm99.683-12.52c0-4.55 3.194-8.251 7.12-8.251 3.928 0 7.121 3.7 7.121 8.252 0 4.55-3.193 8.251-7.12 8.251s-7.12-3.7-7.12-8.251zM100.563 111.395c0-2.277-1.595-4.126-3.56-4.126s-3.56 1.849-3.56 4.126v8.252c0 2.277 1.595 4.125 3.56 4.125s3.56-1.848 3.56-4.125v-8.252zM100.563 86.64c0-2.277-1.595-4.125-3.56-4.125s-3.56 1.848-3.56 4.126v8.251c0 2.277 1.595 4.126 3.56 4.126s3.56-1.849 3.56-4.126v-8.251zM100.563 136.15c0-2.278-1.595-4.126-3.56-4.126s-3.56 1.848-3.56 4.126v8.251c0 2.277 1.595 4.126 3.56 4.126s3.56-1.849 3.56-4.126v-8.251zM100.563 61.886c0-2.277-1.595-4.125-3.56-4.125s-3.56 1.848-3.56 4.125v8.252c0 2.277 1.595 4.125 3.56 4.125s3.56-1.848 3.56-4.125v-8.252z"/>
        <path d="M54.281 107.27c1.965 0 3.56-1.849 3.56-4.126V72.687l12.272-7.108c1.207-.702 1.969-2.13 1.969-3.693V27.304l17.8-10.314 17.801 10.314v34.582c0 2.277 1.595 4.126 3.56 4.126s3.56-1.849 3.56-4.126V24.754c0-1.563-.761-2.99-1.968-3.692L93.443 9.827V4.126c0-2.278-1.595-4.126-3.56-4.126s-3.56 1.848-3.56 4.126v5.701L66.93 21.062c-1.207.701-1.969 2.128-1.969 3.692v34.582l-12.271 7.108c-1.207.702-1.97 2.13-1.97 3.693v33.006c0 2.278 1.595 4.126 3.56 4.126zM86.322 136.15c0-2.278-1.595-4.126-3.56-4.126s-3.56 1.848-3.56 4.126v8.251c0 2.277 1.595 4.126 3.56 4.126s3.56-1.849 3.56-4.126v-8.251z"/>
        <path d="M100.563 37.132c0-2.278-1.595-4.126-3.56-4.126s-3.56 1.848-3.56 4.126v8.251c0 2.278 1.595 4.126 3.56 4.126s3.56-1.848 3.56-4.126v-8.251zM86.322 111.395c0-2.277-1.595-4.126-3.56-4.126s-3.56 1.849-3.56 4.126v8.252c0 2.277 1.595 4.125 3.56 4.125s3.56-1.848 3.56-4.125v-8.252z"/>
        <g>
            <path d="M8.103 153.293c-1.077 1.187-1.077 3.12 0 4.318 1.077 1.187 2.83 1.187 3.916 0 7.454-8.216 19.584-8.216 27.038 0 .538.593 1.245.896 1.953.896.707 0 1.414-.303 1.953-.896 1.077-1.187 1.077-3.12 0-4.318-9.607-10.601-25.253-10.601-34.86 0z"/>
            <path d="M15.412 161.456c-1.096 1.202-1.096 3.158 0 4.371 1.095 1.202 2.878 1.202 3.984 0 3.382-3.723 8.902-3.723 12.285 0 .547.601 1.267.908 1.986.908.72 0 1.44-.307 1.987-.908 1.095-1.202 1.095-3.158 0-4.36-5.573-6.14-14.658-6.14-20.242-.011zM50.985 144.856c-13.835-15.808-36.34-15.808-50.175 0-1.08 1.235-1.08 3.244 0 4.49 1.08 1.235 2.837 1.235 3.927 0 11.665-13.35 30.656-13.35 42.332 0 .54.618 1.249.933 1.958.933.71 0 1.418-.315 1.958-.932 1.08-1.235 1.08-3.244 0-4.49z"/>
        </g>
        <g>
            <path d="M94.103 179.293c-1.077 1.187-1.077 3.12 0 4.318 1.077 1.187 2.83 1.187 3.916 0 7.454-8.216 19.584-8.216 27.038 0 .538.593 1.245.896 1.953.896.707 0 1.414-.303 1.953-.896 1.077-1.187 1.077-3.12 0-4.318-9.607-10.601-25.253-10.601-34.86 0z"/>
            <path d="M101.412 187.456c-1.096 1.202-1.096 3.158 0 4.371 1.095 1.202 2.878 1.202 3.984 0 3.382-3.723 8.902-3.723 12.285 0 .547.601 1.267.908 1.986.908.72 0 1.44-.307 1.987-.908 1.095-1.202 1.095-3.158 0-4.36-5.573-6.14-14.658-6.14-20.242-.011zM136.985 170.856c-13.835-15.808-36.34-15.808-50.175 0-1.08 1.235-1.08 3.244 0 4.49 1.08 1.235 2.837 1.235 3.927 0 11.665-13.35 30.656-13.35 42.332 0 .54.618 1.249.933 1.958.933.71 0 1.418-.315 1.958-.932 1.08-1.235 1.08-3.244 0-4.49z"/>
        </g>
        <g>
            <path d="M190.103 171.293c-1.077 1.187-1.077 3.12 0 4.318 1.077 1.187 2.83 1.187 3.916 0 7.454-8.216 19.584-8.216 27.038 0 .538.593 1.245.896 1.953.896.707 0 1.414-.303 1.953-.896 1.077-1.187 1.077-3.12 0-4.318-9.607-10.601-25.253-10.601-34.86 0z"/>
            <path d="M197.412 179.456c-1.096 1.202-1.096 3.158 0 4.371 1.095 1.202 2.878 1.202 3.984 0 3.382-3.723 8.902-3.723 12.285 0 .547.601 1.267.908 1.986.908.72 0 1.44-.307 1.987-.908 1.095-1.202 1.095-3.158 0-4.36-5.573-6.14-14.658-6.14-20.242-.011zM232.985 162.856c-13.835-15.808-36.34-15.808-50.175 0-1.08 1.235-1.08 3.244 0 4.49 1.08 1.235 2.837 1.235 3.927 0 11.665-13.35 30.656-13.35 42.332 0 .54.618 1.249.933 1.958.933.71 0 1.418-.315 1.958-.932 1.08-1.235 1.08-3.244 0-4.49z"/>
        </g>
    </g>
</svg>
