<svg xmlns="http://www.w3.org/2000/svg" width="646" height="442" viewBox="0 0 646 442">
    <g fill="none" fill-rule="nonzero">
        <path fill="#FFF" d="M259 50.668C208.721 3.954 132.677-4.393 73 30.251c59.615 20.803 125.393 21.568 186 20.417z" opacity=".5"/>
        <path fill="#8FC9F2" d="M597.726 389.325L533.29 279.02a2.055 2.055 0 0 0-1.78-1.021c-.736 0-1.415.39-1.78 1.02l-64.437 110.305a2.006 2.006 0 0 0-.022 2.05 2.055 2.055 0 0 0 1.799 1.02h19.221a2.05 2.05 0 0 1 2.057 2.032v23.54c0 1.12.917 2.03 2.05 2.033h25.08c1.136 0 2.056-.91 2.056-2.032V406.59c0-1.119.918-2.026 2.05-2.026h23.844c1.134 0 2.053.906 2.057 2.026v11.378c0 1.122.92 2.032 2.056 2.032h25.074c1.136 0 2.056-.91 2.056-2.032v-23.565c0-1.123.921-2.033 2.057-2.033h19.221a2.06 2.06 0 0 0 1.776-1.017c.366-.627.367-1.4.001-2.028zm-89.858 12.206c-.382.389-.906.61-1.454.614h-9.027c-1.136 0-2.056-.91-2.056-2.032 0-1.123.92-2.033 2.056-2.033h9.046c.831 0 1.58.496 1.899 1.255.318.76.142 1.633-.446 2.214l-.018-.018zm59.193 0c-.382.389-.906.61-1.454.614h-9.02c-1.136 0-2.057-.91-2.057-2.032 0-1.123.921-2.033 2.057-2.033h9.058c.831 0 1.58.496 1.899 1.255.318.76.142 1.633-.446 2.214l-.037-.018zM201.725 390.323l-63.952-110.308a2.042 2.042 0 0 0-1.767-1.015c-.728 0-1.401.387-1.766 1.015L79 375.292a168.358 168.358 0 0 0 23.116 23.769h9.002c1.127 0 2.04.91 2.04 2.032a2.037 2.037 0 0 1-2.04 2.033h-3.798a98.9 98.9 0 0 0 14.798 9.167v-4.697c0-1.123.913-2.033 2.04-2.033h23.665a2.037 2.037 0 0 1 2.035 2.033v11.372a2.04 2.04 0 0 0 2.04 2.032h24.892a2 2 0 0 0 1.622-.817c.274-.35.42-.783.413-1.228v-23.547c0-1.123.914-2.033 2.04-2.033h19.078a2.043 2.043 0 0 0 1.78-1.01c.369-.631.37-1.41.002-2.042zm-42.267 9.334c.38-.389.899-.61 1.443-.614h8.977c1.127 0 2.041.91 2.041 2.032a2.037 2.037 0 0 1-2.04 2.032h-8.984c-.826 0-1.57-.495-1.885-1.254a2.026 2.026 0 0 1 .442-2.215l.006.019zm-40.17-40.82c-1.128 0-2.041-.91-2.041-2.033v-15.436c0-1.123.913-2.033 2.04-2.033h33.45a2.037 2.037 0 0 1 2.035 2.033v15.436c0 1.12-.91 2.03-2.035 2.032h-33.45zM454.168 190.034H375.06v-17.122a4.094 4.094 0 0 0-4.093-4.095h-23.23v-18.239a2.577 2.577 0 0 0-2.576-2.578h-29.923a2.577 2.577 0 0 0-2.577 2.578v18.233h-27.31a4.094 4.094 0 0 0-4.092 4.095v17.122h-75.434a.832.832 0 0 0-.826.833v227.306c0 .458.369.83.826.833h50.133c.46 0 .832-.373.832-.833v-30.58a.839.839 0 0 1 .832-.833h21.178a.839.839 0 0 1 .832.833v30.58c0 .458.368.83.826.833h99.076a.839.839 0 0 0 .832-.833v-30.58c0-.458.37-.83.826-.833h21.178c.46 0 .832.373.832.833v30.58c.003.459.374.83.832.833h50.133a.839.839 0 0 0 .832-.833v-227.3a.839.839 0 0 0-.832-.833zm-206.35 186.099c0 .456-.37.826-.827.826h-30.965a.826.826 0 0 1-.832-.826v-10.566c0-.46.373-.832.832-.832h30.965a.832.832 0 0 1 .826.832v10.566zm0-27.349a.827.827 0 0 1-.827.833h-30.965a.826.826 0 0 1-.832-.833v-10.578a.827.827 0 0 1 .832-.832h30.965a.826.826 0 0 1 .826.832v10.578zm0-27.342c0 .457-.37.83-.827.833h-30.965a.832.832 0 0 1-.832-.833v-10.584c0-.46.373-.833.832-.833h30.965a.832.832 0 0 1 .826.833v10.584zm0-27.349a.827.827 0 0 1-.827.833h-30.965a.826.826 0 0 1-.832-.833v-10.56a.827.827 0 0 1 .832-.832h30.965a.826.826 0 0 1 .826.833v10.56zm0-27.342c0 .457-.37.83-.827.833h-30.965a.832.832 0 0 1-.832-.833v-10.584a.827.827 0 0 1 .832-.827h30.965c.456 0 .826.37.826.827v10.584zm0-27.342c0 .456-.37.826-.827.826h-30.965a.826.826 0 0 1-.832-.826v-10.585c0-.46.373-.832.832-.832h30.965a.832.832 0 0 1 .826.832v10.585zm0-27.349a.827.827 0 0 1-.827.833h-30.965a.826.826 0 0 1-.832-.833V201.5a.827.827 0 0 1 .832-.832h30.965a.826.826 0 0 1 .826.833v10.559zm73.411 164.067a.827.827 0 0 1-.832.826h-30.965a.832.832 0 0 1-.832-.826v-10.56a.839.839 0 0 1 .832-.832h30.965c.46 0 .832.372.832.832v10.56zm0-27.349a.827.827 0 0 1-.832.833h-30.965a.832.832 0 0 1-.832-.833v-10.572a.833.833 0 0 1 .832-.832h30.965a.826.826 0 0 1 .832.832v10.572zm0-27.342c0 .46-.372.832-.832.832h-30.965a.839.839 0 0 1-.832-.832v-10.578a.839.839 0 0 1 .832-.833h30.965c.46 0 .832.373.832.833v10.578zm0-27.349a.827.827 0 0 1-.832.833h-30.965a.832.832 0 0 1-.832-.833v-10.553a.833.833 0 0 1 .832-.833h30.965a.826.826 0 0 1 .832.833v10.553zm0-27.342c0 .46-.372.833-.832.833h-30.965a.839.839 0 0 1-.832-.833v-10.578a.832.832 0 0 1 .832-.827h30.965a.826.826 0 0 1 .832.827v10.578zm0-27.343a.827.827 0 0 1-.832.827h-30.965a.832.832 0 0 1-.832-.827v-10.578a.839.839 0 0 1 .832-.832h30.965c.46 0 .832.373.832.832v10.578zm0-27.348a.827.827 0 0 1-.832.833h-30.965a.832.832 0 0 1-.832-.833V201.5a.833.833 0 0 1 .832-.833h30.965a.826.826 0 0 1 .832.833v10.553zm50.164 164.067a.827.827 0 0 1-.832.826h-30.965a.832.832 0 0 1-.832-.826v-10.554a.839.839 0 0 1 .832-.832h30.965c.46 0 .832.372.832.832v10.554zm0-27.349a.827.827 0 0 1-.832.833h-30.965a.832.832 0 0 1-.832-.833v-10.566a.833.833 0 0 1 .832-.832h30.965a.826.826 0 0 1 .832.832v10.566zm0-27.342c0 .46-.372.832-.832.832h-30.965a.839.839 0 0 1-.832-.832v-10.572a.839.839 0 0 1 .832-.833h30.965c.46 0 .832.373.832.833v10.572zm0-27.349a.827.827 0 0 1-.832.833h-30.965a.832.832 0 0 1-.832-.833v-10.547a.833.833 0 0 1 .832-.833h30.965a.826.826 0 0 1 .832.833v10.547zm0-27.342c0 .46-.372.832-.832.832h-30.965a.839.839 0 0 1-.832-.832v-10.572a.832.832 0 0 1 .832-.827h30.965a.826.826 0 0 1 .832.827v10.572zm0-27.343a.827.827 0 0 1-.832.827h-30.965a.832.832 0 0 1-.832-.827v-10.572a.839.839 0 0 1 .832-.832h30.965c.46 0 .832.373.832.832v10.572zm0-27.348a.827.827 0 0 1-.832.832h-30.965a.832.832 0 0 1-.832-.832V201.5a.833.833 0 0 1 .832-.833h30.965a.826.826 0 0 1 .832.833v10.547zm73.413 164.066a.832.832 0 0 1-.832.827h-30.965a.826.826 0 0 1-.832-.827v-10.547c0-.46.372-.832.832-.832h30.97a.839.839 0 0 1 .833.832l-.006 10.547zm0-27.348c0 .46-.373.833-.832.833h-30.965a.826.826 0 0 1-.832-.833v-10.56a.827.827 0 0 1 .832-.832h30.97c.46 0 .833.373.833.832l-.006 10.56zm0-27.343a.839.839 0 0 1-.832.833h-30.965a.832.832 0 0 1-.832-.833v-10.565c0-.46.372-.833.832-.833h30.97a.839.839 0 0 1 .833.833l-.006 10.565zm0-27.348c0 .46-.373.833-.832.833h-30.965a.826.826 0 0 1-.832-.833v-10.541a.827.827 0 0 1 .832-.833h30.97c.46 0 .833.373.833.833l-.006 10.54zm0-27.342a.839.839 0 0 1-.832.832h-30.965a.832.832 0 0 1-.832-.832v-10.566a.827.827 0 0 1 .832-.827h30.97c.458 0 .83.37.833.827l-.006 10.566zm0-27.343a.833.833 0 0 1-.826.845h-30.971a.826.826 0 0 1-.832-.826v-10.585c0-.46.372-.832.832-.832h30.97a.839.839 0 0 1 .833.832l-.006 10.566zm0-27.348c0 .46-.373.832-.832.832h-30.965a.826.826 0 0 1-.832-.832V201.5a.827.827 0 0 1 .832-.833h30.97c.46 0 .833.373.833.833l-.006 10.54zM230 128.578a18.94 18.94 0 0 0-10.632 1.113 16.194 16.194 0 0 1-12.826-.03 18.49 18.49 0 0 0-15.013.287 9.628 9.628 0 0 1-4.324 1.04c-6.087 0-11.153-5.913-12.205-13.716a11.428 11.428 0 0 0 3.043-3.161c3.57-5.546 9.098-9.111 15.305-9.111 6.207 0 11.666 3.522 15.216 9.007 2.166 3.37 6.002 5.403 10.113 5.357h.158c4.895 0 9.092 3.748 11.165 9.214z" opacity=".7"/>
        <path fill="#8FC9F2" d="M247.507 104.381l-9.57 6.163 5.809-10.728a9.37 9.37 0 0 0-5.79-2.098h-.155c-.665.01-1.33-.04-1.986-.15l-3.23 2.091 1.393-2.568a11.553 11.553 0 0 1-5.673-4.384l-5.81 3.758 3.657-6.789C222.755 85.536 218.18 83 213.147 83c-6.037 0-11.414 3.645-14.886 9.325-2.093 3.47-5.861 5.53-9.866 5.393h-.327c-6.666 0-12.068 7.671-12.068 17.14 0 9.47 5.402 17.142 12.068 17.142a8.9 8.9 0 0 0 4.206-1.07 17.16 17.16 0 0 1 14.602-.289 15.024 15.024 0 0 0 12.42 0 17.153 17.153 0 0 1 14.478.282 8.923 8.923 0 0 0 4.157 1.046c6.666 0 12.068-7.678 12.068-17.142a22.044 22.044 0 0 0-2.492-10.446zM513 241.312a13.139 13.139 0 0 0-7.354.768 11.169 11.169 0 0 1-8.833 0 12.776 12.776 0 0 0-10.387.2 6.623 6.623 0 0 1-2.988.72c-4.21 0-7.711-4.096-8.438-9.5a8.023 8.023 0 0 0 2.105-2.19c2.468-3.841 6.264-6.31 10.58-6.31 4.317 0 8.075 2.42 10.543 6.238 1.496 2.335 4.15 3.742 6.992 3.709h.112c3.32-.012 6.22 2.583 7.668 6.365z" opacity=".7"/>
        <path fill="#8FC9F2" d="M526.217 224.42l-6.723 4.154 4.08-7.234a6.76 6.76 0 0 0-4.068-1.411h-.105a8.19 8.19 0 0 1-1.393-.103l-2.284 1.405.978-1.724a8.145 8.145 0 0 1-3.986-2.948l-4.092 2.508 2.575-4.564c-2.383-2.79-5.572-4.503-9.137-4.503-4.24 0-8.048 2.46-10.462 6.288-1.47 2.327-4.11 3.708-6.915 3.617h-.204c-4.68 0-8.481 5.166-8.481 11.544 0 6.379 3.8 11.551 8.48 11.551a6.5 6.5 0 0 0 2.954-.717c3.226-1.53 6.98-1.601 10.264-.193a11.017 11.017 0 0 0 8.728 0 12.525 12.525 0 0 1 10.17.193 6.546 6.546 0 0 0 2.923.699c4.686 0 8.481-5.167 8.481-11.55a14.376 14.376 0 0 0-1.783-7.012zM148 202.314a13.162 13.162 0 0 1 7.354.768 11.163 11.163 0 0 0 8.827 0 12.792 12.792 0 0 1 10.386.199 6.65 6.65 0 0 0 2.989.719c4.21 0 7.717-4.09 8.444-9.486a7.93 7.93 0 0 1-2.105-2.188c-2.456-3.849-6.296-6.326-10.6-6.326-4.303 0-8.068 2.417-10.536 6.23-1.5 2.334-4.156 3.743-7.004 3.716h-.106c-3.333 0-6.24 2.592-7.649 6.368z" opacity=".7"/>
        <path fill="#8FC9F2" d="M135.777 185.426l6.723 4.136-4.086-7.234a6.773 6.773 0 0 1 4.067-1.411h.112a8.26 8.26 0 0 0 1.392-.103l2.279 1.405-.979-1.724a8.158 8.158 0 0 0 3.993-2.948l4.08 2.52-2.582-4.564c2.39-2.79 5.603-4.503 9.144-4.503 4.24 0 8.047 2.46 10.462 6.288 1.47 2.328 4.11 3.71 6.914 3.617h.223c4.686 0 8.481 5.166 8.481 11.544 0 6.379-3.795 11.551-8.48 11.551a6.539 6.539 0 0 1-2.954-.717 12.505 12.505 0 0 0-10.263-.193 11.004 11.004 0 0 1-8.723 0 12.538 12.538 0 0 0-10.177.193 6.527 6.527 0 0 1-2.922.699c-4.68 0-8.481-5.167-8.481-11.55a14.376 14.376 0 0 1 1.777-7.006z" opacity=".7"/>
        <path fill="#3F3D56" d="M135 424.35c8.37 5.094 20.43-.06 28.854 4.958 2.176 1.292 3.932 3.193 6.182 4.366 2.701 1.416 5.878 1.671 8.95 1.778 25.727.953 51.886-5.925 76.97-.368 7.016 1.552 13.877 4.076 21.066 4.444 12.419.645 24.318-5.16 36.748-5.48 18.853-.486 37.379 11.605 55.57 6.836 5.984-1.57 11.473-4.917 17.648-5.48 6.88-.592 13.494 2.281 20.182 3.958 23.718 5.924 48.419-3.673 72.94-4.39 15.991-.468 31.828 2.873 47.806 3.643 11.362.545 22.748-.219 34.097-.977 4.327-.29 8.858-.646 12.48-2.921s5.847-7.162 3.61-10.717L135 424.35z" opacity=".7"/>
        <path fill="#000" d="M135 424.35c8.37 5.094 20.43-.06 28.854 4.958 2.176 1.292 3.932 3.193 6.182 4.366 2.701 1.416 5.878 1.671 8.95 1.778 25.727.953 51.886-5.925 76.97-.368 7.016 1.552 13.877 4.076 21.066 4.444 12.419.645 24.318-5.16 36.748-5.48 18.853-.486 37.379 11.605 55.57 6.836 5.984-1.57 11.473-4.917 17.648-5.48 6.88-.592 13.494 2.281 20.182 3.958 23.718 5.924 48.419-3.673 72.94-4.39 15.991-.468 31.828 2.873 47.806 3.643 11.362.545 22.748-.219 34.097-.977 4.327-.29 8.858-.646 12.48-2.921s5.847-7.162 3.61-10.717L135 424.35z" opacity=".7"/>
        <path fill="#3F3D56" d="M135 421.35c8.37 5.094 20.43-.06 28.854 4.958 2.176 1.292 3.932 3.193 6.182 4.366 2.701 1.416 5.878 1.671 8.95 1.778 25.727.953 51.886-5.925 76.97-.368 7.016 1.552 13.877 4.076 21.066 4.444 12.419.645 24.318-5.16 36.748-5.48 18.853-.486 37.379 11.605 55.57 6.836 5.984-1.57 11.473-4.917 17.648-5.48 6.88-.592 13.494 2.281 20.182 3.958 23.718 5.924 48.419-3.673 72.94-4.39 15.991-.468 31.828 2.873 47.806 3.643 11.362.545 22.748-.219 34.097-.977 4.327-.29 8.858-.646 12.48-2.921s5.847-7.162 3.61-10.717L135 421.35z" opacity=".7"/>
        <g opacity=".7" transform="translate(19 120)">
            <path fill="#3F3D56" d="M55.787 224.395a15.064 15.064 0 0 1-1.995 7.635 15.611 15.611 0 0 1 0 15.27A14.02 14.02 0 0 1 55.3 251a280.023 280.023 0 0 1-18.58-27.752 14.788 14.788 0 0 1 1.952-6.512 15.064 15.064 0 0 1-1.994-7.635 15.684 15.684 0 0 1 .901-5.31c.288-.809.654-1.587 1.093-2.325 1.741-2.954 4.483-4.86 7.557-4.86 3.075 0 5.823 1.906 7.564 4.86.424.717.781 1.47 1.068 2.251.62 1.727.933 3.55.927 5.384a15.064 15.064 0 0 1-1.995 7.635 15.064 15.064 0 0 1 1.995 7.66z"/>
            <ellipse cx="46.228" cy="193.862" fill="#3F3D56" rx="9.552" ry="12.494"/>
            <ellipse cx="46.228" cy="178.592" fill="#3F3D56" rx="9.552" ry="12.494"/>
            <path fill="#8FC9F2" d="M91.796 102.33a45.466 45.466 0 0 1-9.799 28.264 45.672 45.672 0 0 1 6.935 44.166 45.756 45.756 0 0 1-34.102 28.957c-1.1.222-2.217.395-3.347.53a46.296 46.296 0 0 1-10.497.056 41.236 41.236 0 0 1-3.439-.512 45.294 45.294 0 0 1-14.201-5.186A455.159 455.159 0 0 1 1.852 146.93a45.486 45.486 0 0 1 8.206-16.312 45.71 45.71 0 0 1-7.41-42.93l34.75 11.65L4.81 82.43a45.893 45.893 0 0 1 5.217-8.338 45.672 45.672 0 0 1-5.672-47.244C11.465 11.28 26.684.981 43.795.157c17.111-.823 33.25 7.966 41.827 22.778L52.026 47.604l36.43-18.872a45.722 45.722 0 0 1-.877 36.22l-27.168-.204 25.106 4.12a45.899 45.899 0 0 1-3.563 5.23 45.479 45.479 0 0 1 9.842 28.232z"/>
            <path fill="#000" d="M91.796 158.882c-.003 21.846-15.476 40.638-36.936 44.86-1.099.222-2.216.394-3.346.53a46.296 46.296 0 0 1-10.497.056 41.236 41.236 0 0 1-3.439-.512 45.294 45.294 0 0 1-14.201-5.187 455.159 455.159 0 0 1-21.525-51.698 45.486 45.486 0 0 1 8.206-16.312A45.497 45.497 0 0 1 .26 102.33c0-5.13 87.876 20.487 81.738 28.264a45.467 45.467 0 0 1 9.8 28.288z" opacity=".1"/>
        </g>
        <g opacity=".7">
            <path fill="#3F3D56" d="M627.174 331.446a496.306 496.306 0 0 1-5.54 16.984 16.257 16.257 0 0 1-.796-5.083c0-5.53 2.655-10.223 6.336-11.901z"/>
            <path fill="#8FC9F2" d="M645.938 232.647c0 10.867-2.136 28.037-6.034 47.678a534.915 534.915 0 0 1-12.76 51.12 496.306 496.306 0 0 1-5.54 16.985 346.153 346.153 0 0 1-6.956 18.335c-13.484-5.08-23.785-16.475-27.712-30.654-3.928-14.18-1.007-29.431 7.856-41.03-9.352-12.227-12.073-28.465-7.24-43.196l33.956 11.722-31.844-17.016a46.443 46.443 0 0 1 5.098-8.39c-8.596-11.248-11.617-25.955-8.177-39.808 3.44-13.853 12.952-25.281 25.746-30.935 13.706 9.596 24.023 23.481 29.413 39.585l-5.882 4.496 6.31-3.363a80.445 80.445 0 0 1 3.675 20.626h-1.774l1.81.303c.054 1.17.054 2.347.054 3.542z"/>
            <path fill="#000" d="M639.934 280.325a534.915 534.915 0 0 1-12.76 51.12 496.306 496.306 0 0 1-5.54 16.985 346.153 346.153 0 0 1-6.956 18.335c-13.483-5.08-23.785-16.475-27.712-30.654-3.928-14.18-1.007-29.431 7.856-41.03-6.212-8.105-9.583-18.122-9.569-28.434 0-3.096 31.205 5.016 54.681 13.678z" opacity=".1"/>
        </g>
        <path fill="#FFF" d="M645.928 231.282v-.291a78.625 78.625 0 0 0-3.761-20.605c-.124-.377-.247-.76-.377-1.132a78.884 78.884 0 0 0-30.108-39.545c-32.533-22.2-76.464-16.76-102.62 12.706a111.105 111.105 0 0 0-6.244-21.94 351.239 351.239 0 0 1-62.149 2.319 250.491 250.491 0 0 0 39.403 14.332l-.482 1.794a252.788 252.788 0 0 1-44.047-16.516l-4.267-2.072 4.73.31a351.355 351.355 0 0 0 66.083-1.9 111.627 111.627 0 0 0-19.466-30.978c-35.55-3.587-70.82-11.06-103.757-25.874l.76-1.689c32.06 14.431 66.416 21.848 101.1 25.497-23.802-25.555-58.215-38.416-92.914-34.722-34.699 3.694-65.645 23.512-83.552 53.508a152.833 152.833 0 0 0-37.822-85.919 355.705 355.705 0 0 1-58.53 17.76 353.438 353.438 0 0 1-91.49 7.292A250.491 250.491 0 0 0 155.82 97.95l-.481 1.793a252.788 252.788 0 0 1-44.035-16.515l-4.268-2.073 4.73.31a351.047 351.047 0 0 0 153.388-24.34 158.734 158.734 0 0 0-5.657-5.89C198.712 52.473 132.512 51.854 72.58 30 27.423 57.915-.05 107.288 0 160.437c0 28.739 7.887 68.259 21.616 107.909a458.906 458.906 0 0 0 21.56 51.96c4.194 8.536 8.647 16.83 13.322 24.773a281.227 281.227 0 0 0 18.584 27.836 203.71 203.71 0 0 0 3.674 4.7 169.685 169.685 0 0 0 23.148 24.044 121.841 121.841 0 0 0 5.182 4.102 98.668 98.668 0 0 0 14.822 9.278c9.06 4.547 18.41 7.213 27.977 7.596.766.031 1.538.05 2.304.05V423h415.026v-.315h.309a20.969 20.969 0 0 0 7.016-1.238c14.674-5.214 28.187-26.153 39.421-52.615a356.972 356.972 0 0 0 7.121-18.316 447.485 447.485 0 0 0 5.67-16.967 523.814 523.814 0 0 0 13.062-51.069c3.959-19.62 6.176-36.774 6.176-47.63.018-1.212.018-2.387-.062-3.568z" opacity=".5"/>
        <path fill="#8FC9F2" d="M206.238 404.182l11.859-7.01a28.685 28.685 0 0 0-6.066-7.289l-22.372 6.99 17.533-10.352a28.383 28.383 0 0 0-28.22.479C170.31 392.157 165 401.523 165 411.64c0 15.812 12.757 16.36 28.5 16.36s28.5-.548 28.5-16.36a28.622 28.622 0 0 0-2.447-11.622l-13.315 4.164z"/>
        <path fill="#000" d="M208.181 418.758a21.625 21.625 0 0 0-4.097-3.231c-2.103-1.403-4.272-2.836-6.75-3.31-2.175-.42-4.417-.067-6.647-.194a15.471 15.471 0 0 1-10.157-4.677c-1.577-1.64-2.822-3.644-4.72-4.914-2.048-1.348-4.646-1.64-7.076-1.305-.705.1-1.403.245-2.09.43A27.976 27.976 0 0 0 165 411.04C165 426.466 177.442 427 192.796 427c7.451 0 14.213-.128 19.204-2.016l-.834-1.567a22.121 22.121 0 0 0-2.985-4.659z" opacity=".1"/>
        <circle cx="337" cy="106" r="22" fill="#3F3D56"/>
        <path fill="#3F3D56" d="M324.79 276.218c2.292 16.038-.503 32.392-4.856 47.996-.813 2.905-1.689 5.835-3.21 8.443-1.521 2.608-3.639 4.85-5.427 7.303-3.726 5.117-5.912 11.15-7.955 17.122a482.05 482.05 0 0 0-14.17 50.375 3.442 3.442 0 0 0 0 2.15c.54 1.238 2.18 1.399 3.527 1.393l17.424-.093c.621-1.19-.528-2.478-1.242-3.618-2.484-3.853-.099-8.858 2.093-12.89a138.4 138.4 0 0 0 12.283-30.974c1.192-4.54 2.16-9.18 4.098-13.46 2.34-5.191 6.01-9.658 8.991-14.514 3.465-5.644 5.993-11.77 8.501-17.921 3.503-8.536 7.036-17.178 8.414-26.296 1.298-8.561.659-17.283-.186-25.9a1.633 1.633 0 0 0-.473-1.415 1.642 1.642 0 0 0-1.427-.443l-23.38-1.202c-4.818-.248-5.96-1.3-5.228 3.42.51 3.524 1.714 6.956 2.223 10.524z"/>
        <path fill="#000" d="M324.79 276.218c2.292 16.038-.503 32.392-4.856 47.996-.813 2.905-1.689 5.835-3.21 8.443-1.521 2.608-3.639 4.85-5.427 7.303-3.726 5.117-5.912 11.15-7.955 17.122a482.05 482.05 0 0 0-14.17 50.375 3.442 3.442 0 0 0 0 2.15c.54 1.238 2.18 1.399 3.527 1.393l17.424-.093c.621-1.19-.528-2.478-1.242-3.618-2.484-3.853-.099-8.858 2.093-12.89a138.4 138.4 0 0 0 12.283-30.974c1.192-4.54 2.16-9.18 4.098-13.46 2.34-5.191 6.01-9.658 8.991-14.514 3.465-5.644 5.993-11.77 8.501-17.921 3.503-8.536 7.036-17.178 8.414-26.296 1.298-8.561.659-17.283-.186-25.9a1.633 1.633 0 0 0-.473-1.415 1.642 1.642 0 0 0-1.427-.443l-23.38-1.202c-4.818-.248-5.96-1.3-5.228 3.42.51 3.524 1.714 6.956 2.223 10.524z" opacity=".1"/>
        <path fill="#3F3D56" d="M330.408 238.743c-4.726 6.833-9.681 14.697-8.112 22.878 1.192 6.212 5.9 11.027 10.342 15.53 17.756 17.928 35.215 37.843 41.257 62.411 1.557 6.349 2.311 12.865 3.652 19.257 2.434 11.617 6.796 22.724 11.12 33.762l11.59 29.414c7.364.182 14.054-4.287 16.743-11.182-1.52-.118-3.503-1.596-4.393-2.839-4.942-6.876-5.955-15.722-7.222-24.108-1.402-9.268-3.274-18.462-5.152-27.65l-8.304-40.65c-.957-4.69-1.915-9.386-3.163-14.008-4.831-17.903-13.987-34.787-15.402-53.298-.21-2.721-.34-5.71-2.175-7.728-1.927-2.13-5.09-2.485-7.95-2.653-11.572-.745-21.556-1.882-32.831.864z"/>
        <path fill="#F2F2F2" d="M300.052 407.25c-1.256-.3-2.54-.466-3.83-.496a7.94 7.94 0 0 0-6.256 3.444 15.725 15.725 0 0 0-1.681 3.723l-1.669 4.827c-.492 1.414-.973 3.046-.24 4.343a4.574 4.574 0 0 0 2.241 1.743c4.04 1.812 8.62 1.912 12.992 2.346 4.274.422 8.51 1.179 12.728 1.973 1.453.28 2.9.558 4.372.707 3.288.335 6.6 0 9.888-.298l3.393-.328a12.133 12.133 0 0 0 3.337-.62 4.217 4.217 0 0 0 2.463-2.228c.838-2.091-.96-4.567-3.158-5.001-.893-.174-1.848-.093-2.722-.211a12.784 12.784 0 0 1-2.98-.9c-4.31-1.719-8.725-3.456-12.543-6.161-1.059-.75-2.167-1.8-2.05-3.102.11-.559.294-1.1.548-1.607a5.912 5.912 0 0 0 .05-4.151c-.21-.571-.617-1.173-1.19-1.241-1.625-.199-1.428 2.19-1.668 3.102-.326 1.24-.917 1.353-2.075 1.24-3.325-.303-6.65-.47-9.95-1.104zM396.066 423.363c.03 2.453.862 4.825 2.365 6.747a5.19 5.19 0 0 0 1.685 1.374c.98.409 2.04.578 3.096.496a24.517 24.517 0 0 0 8.602-1.764 24.382 24.382 0 0 1 2.972-1.136 32.953 32.953 0 0 1 3.864-.564c5.121-.747 9.617-3.81 14.565-5.36a30.338 30.338 0 0 0 4.335-1.443c1.957-.935 3.542-2.51 5.096-4.035a12.345 12.345 0 0 0 2.34-2.843c.911-1.713.967-3.765 1.004-5.704a1.644 1.644 0 0 0-.149-.885 1.303 1.303 0 0 0-.557-.446c-1.505-.753-3.288-.376-4.954-.081-6.019 1.086-12.18.885-18.293.684a2.651 2.651 0 0 1-2.811-1.625l-2.322-3.766c-.663-1.079-1.716-2.315-2.917-1.945-.96.295-1.35 1.487-1.313 2.51.037 1.023.347 2.04.155 3.037a4.141 4.141 0 0 1-1.982 2.611c-.975.538-2.016.943-3.096 1.205-3.418.979-7.394 2.09-10.038 4.637-1.944 1.808-1.765 5.855-1.647 8.296z"/>
        <path fill="#FBBEBE" d="M394.776 180.017a14.356 14.356 0 0 0 3.366-3.691 15.131 15.131 0 0 0 1.437-5.101l.968-6.164c.537-3.399 1.166-6.997 3.416-9.588 2.251-2.59 6.734-3.517 9.022-.957.999 1.113 1.393 2.641 1.64 4.126 1.425 8.97-1.255 18.106-7.289 24.854-2.768 3.058-6.166 5.487-9.095 8.376-2.553 2.486-4.766 5.338-7.122 8.04A98.533 98.533 0 0 1 371.714 217c.086-4.623.672-9.581 0-14.173-.5-3.318-1.85-5.108 1.338-7.276 7.4-5.07 14.867-9.656 21.724-15.534zM332.36 134.62c-.243 3.274-1.62 6.62-4.36 8.509A343.17 343.17 0 0 1 350.966 152c-1.457-1.384-1.9-3.507-1.968-5.5-.193-5.21 1.632-10.335 4.298-14.826a3.57 3.57 0 0 0 .704-1.956c-.087-1.452-1.831-2.123-3.264-2.461a81.207 81.207 0 0 0-14.9-2.135c-2.149-.067-4.697-.738-4.21 1.963.46 2.522.927 4.983.734 7.536z"/>
        <circle cx="349" cy="118" r="18" fill="#FBBEBE"/>
        <path fill="#FF6F61" d="M365.277 166.692a21.769 21.769 0 0 0-2.302-3.835c-3.287-4.69-6.662-9.376-10.88-13.26a67.716 67.716 0 0 0-10.33-7.538 23.508 23.508 0 0 0-6.464-3.083 25.443 25.443 0 0 0-4.15-.56l-4.709-.383a3.877 3.877 0 0 0-1.24.037c-1.278.32-1.861 1.899-1.588 3.175.273 1.276 1.24 2.312 2.096 3.28.211 9.548-4.063 18.967-4.64 28.504-1.011 16.675 9.231 32.184 10.05 48.872a5.24 5.24 0 0 1-.236 2.237c-.136.345-.34.66-.496.999-.484 1.048-.465 2.238-.552 3.39a17.178 17.178 0 0 1-5.106 10.862 7.582 7.582 0 0 0 2.879 2.182c1.979.857 4.342.931 6.445 1.53 5.484 1.59 11.105 3.192 16.806 2.853a14.66 14.66 0 0 0 1.296-4.851c.807-.5 1.737.567 1.861 1.504.125.937-.055 2.028.62 2.706.677.678 1.533.573 2.358.469 3.48-.438 6.824-1.603 10.236-2.386 3.412-.783 7.06-1.159 10.379-.037.67-.845.384-2.096-.161-3.02-.546-.925-1.322-1.739-1.632-2.768a6.176 6.176 0 0 1-.199-1.819c0-5.27 1.092-10.597.056-15.769-.304-1.516-.788-2.996-1.098-4.518-.62-2.953-.527-5.998-.446-9.013.08-3.014-.286-6.275-.348-9.333a29.583 29.583 0 0 0-.248-3.778c-.21-1.313-.62-2.596-.732-3.92-.335-3.367 1.03-6.708.825-10.086-.341-5.129-6.34-7.915-8.35-12.643z"/>
        <path fill="#FBBEBE" d="M325.006 164.157c-4.308 11.595-6.413 23.894-8.518 36.106l-4.868 28.685c-1.381 8.106-2.768 16.262-2.714 24.486 0 2.309.146 4.661-.45 6.89-.779 2.926-2.714 5.365-4.18 8.026a26.75 26.75 0 0 0-2.799 17.862c.5 2.562 1.862 5.47 4.424 5.766 2.105.235 3.924-1.463 5.153-3.216 2.824-4.02 4.223-8.873 5.476-13.651a312.87 312.87 0 0 0 8.44-47.596c.15-2.033.433-4.055.846-6.05a43.363 43.363 0 0 1 2.056-6.026 20226.2 20226.2 0 0 1 5.592-14.052c4.302-10.823 8.628-21.696 14.536-31.71-5.841-1.704-11.92-3.705-17.76-5.39-1.686-.506-3.494-.204-5.234-.13z"/>
        <path fill="#FF6F61" d="M334.562 174.447c-4.055-.878-8.248-.606-12.387-.709a2.665 2.665 0 0 1-1.666-.436c-.838-.72-.482-2.071-.06-3.095l2.003-4.846a7.056 7.056 0 0 1 1.605-2.677c1.02-.909 2.456-1.133 3.808-1.296 4.398-.51 8.924-.679 13.19.514 4.266 1.194 8.278 3.907 10.185 7.923.796 1.672 1.164 3.78.108 5.3-1.568 2.26-5.086 4.786-7.71 3.55-3.145-1.496-5.552-3.477-9.076-4.228z"/>
        <path fill="#3F3D56" d="M357.118 89.546a18.499 18.499 0 0 0-10.125 2.885c-5.814-5.444-14.145-7.372-21.802-5.045-1.107-6.276-6.8-10.734-13.238-10.365-6.436.37-11.57 5.45-11.933 11.81-.363 6.361 4.159 11.98 10.513 13.063-2.23 7.523-.227 15.65 5.252 21.318 5.479 5.669 13.603 8.019 21.31 6.165 7.71-1.854 13.83-7.63 16.06-15.153 1.31.265 2.644.398 3.981.399 8.758 0 15.864-5.616 15.864-12.539 0-6.922-7.137-12.538-15.882-12.538z"/>
        <path fill="#000" d="M359.713 109.276a17.375 17.375 0 0 1-3.88-.427 24.42 24.42 0 0 1-2.833 6.77c1.197.25 2.413.378 3.632.381 7.977 0 14.527-5.263 15.368-12-2.839 3.21-7.288 5.276-12.287 5.276z" opacity=".1"/>
        <path fill="#000" d="M335.951 124.818c-7.057-.01-13.692-3.305-17.884-8.881-4.193-5.576-5.447-12.775-3.381-19.404-6.077-1.05-10.508-6.235-10.508-12.296-.002-.75.067-1.5.205-2.237-3.161 3.355-4.203 8.138-2.717 12.47 1.486 4.331 5.264 7.52 9.847 8.31-3.566 11.501 2.998 23.672 14.688 27.234 11.69 3.561 24.114-2.825 27.799-14.29-4.172 5.712-10.892 9.098-18.049 9.094z" opacity=".1"/>
        <path fill="#3A3768" d="M415.33 161.657l-1.987 2.786 1.987-2.786zM405.59 151.406l-.654.915.653-.915zM404.387 153.094l-1.137 1.594 1.137-1.594zM402.857 155.248l-1.148 1.61 1.148-1.61zM410.387 151.003l7.198 5.139a2.523 2.523 0 0 1 .588 3.516L404.71 178.53a2.519 2.519 0 0 1-3.514.59v-.002l-7.199-5.139a2.523 2.523 0 0 1-.588-3.515l13.462-18.874a2.519 2.519 0 0 1 3.514-.589v.001z"/>
        <path fill="#000" d="M410.387 151.003l7.198 5.139a2.523 2.523 0 0 1 .588 3.516L404.71 178.53a2.519 2.519 0 0 1-3.514.59v-.002l-7.199-5.139a2.523 2.523 0 0 1-.588-3.515l13.462-18.874a2.519 2.519 0 0 1 3.514-.589v.001z" opacity=".1"/>
        <path fill="#3A3768" d="M409.814 149.852l7.199 5.138a2.523 2.523 0 0 1 .587 3.516l-13.462 18.874a2.519 2.519 0 0 1-3.514.588v-.001l-7.198-5.138a2.523 2.523 0 0 1-.588-3.516l13.462-18.874a2.519 2.519 0 0 1 3.514-.589v.002z"/>
        <path fill="#FFF" d="M418.518 156l-1.313-.927-.113.155a.927.927 0 0 1-1.257.216l-4.198-2.949a.9.9 0 0 1-.214-1.267l.113-.155-1.257-.865a1.133 1.133 0 0 0-1.565.253l-14.505 20a1.095 1.095 0 0 0 .258 1.54l8.258 5.793a1.133 1.133 0 0 0 1.565-.26l14.505-19.994a1.086 1.086 0 0 0-.277-1.54z"/>
        <path fill="#E6E8EC" d="M411.716 152.495l1.578 1.127-1.578-1.127z"/>
        <ellipse cx="413" cy="154" fill="#E6E8EC" rx="1" ry="1"/>
        <path fill="#8FC9F2" d="M413.5 0C390.58 0 372 18.538 372 41.405 372 64.271 415.482 140 415.482 140S455 64.302 455 41.405C455 18.538 436.42 0 413.5 0zm0 69.017c-12.007 0-21.741-9.711-21.741-21.691 0-11.98 9.734-21.692 21.741-21.692s21.741 9.712 21.741 21.692a21.66 21.66 0 0 1-6.36 15.352 21.76 21.76 0 0 1-15.381 6.358v-.019z"/>
    </g>
</svg>
