<svg version="1.1" xmlns="http://www.w3.org/2000/svg" viewBox="0 0 32 32">
<path d="M31.854 14.067c-0.182-1.331-0.792-2.392-1.047-2.79 0.185-2.772-0.417-4.859-1.789-6.205-1.070-1.050-2.319-1.347-2.953-1.43-0.968-1.87-2.613-2.23-3.613-2.143-1.872-1.593-3.602-1.63-4.744-1.37-0.648 0.153-1.218 0.407-1.726 0.748l0.019-0.012c-0.489-0.329-1.060-0.584-1.672-0.73l-0.036-0.007c-1.14-0.26-2.872-0.222-4.744 1.371-1.001-0.088-2.646 0.274-3.613 2.143-0.634 0.083-1.884 0.38-2.953 1.43-1.373 1.345-1.974 3.433-1.789 6.205-0.255 0.397-0.864 1.459-1.047 2.79-0.206 1.51 0.109 3.64 2.692 5.366-0.3 1.615-0.016 4.394 2.806 5.761-0.117 0.587-0.195 1.606 0.38 2.477 0.45 0.685 1.196 1.136 2.217 1.342 0.516 0.727 2.294 2.98 4.512 2.98l0.043-0.001c1.19-0.016 2.264-0.658 3.203-1.912 0.94 1.254 2.015 1.896 3.204 1.912 2.235 0.030 4.035-2.248 4.554-2.98 1.022-0.205 1.768-0.656 2.219-1.34 0.574-0.872 0.496-1.89 0.379-2.478 2.822-1.367 3.106-4.146 2.806-5.76 2.583-1.728 2.898-3.856 2.692-5.366zM28.149 18.727c-0.162 0.094-0.269 0.266-0.269 0.463 0 0.047 0.006 0.093 0.018 0.137l-0.001-0.004c0.041 0.15 0.969 3.703-2.486 5.055-0.29 0.114-0.436 0.412-0.336 0.685 0.004 0.012 0.413 1.199-0.14 2.037-0.299 0.454-0.855 0.747-1.653 0.868-0.178 0.026-0.329 0.125-0.423 0.265l-0.001 0.002c-0.474 0.74-2.043 2.649-3.613 2.649h-0.027c-0.944-0.014-1.844-0.726-2.675-2.117-0.106-0.178-0.333-0.288-0.556-0.288-0.003-0-0.006-0-0.009-0-0.219 0-0.411 0.114-0.521 0.286l-0.001 0.002c-0.83 1.391-1.73 2.103-2.675 2.117-1.572 0.022-3.163-1.905-3.64-2.65-0.096-0.142-0.246-0.241-0.421-0.266l-0.003-0c-0.795-0.121-1.35-0.412-1.65-0.864-0.56-0.842-0.146-2.030-0.142-2.041 0.1-0.274-0.047-0.571-0.337-0.685-3.437-1.346-2.525-4.905-2.485-5.055 0.011-0.040 0.017-0.086 0.017-0.133 0-0.197-0.107-0.369-0.266-0.462l-0.003-0.001c-4.527-2.758-1.657-6.832-1.533-7.003 0.063-0.085 0.101-0.192 0.101-0.309 0-0.014-0.001-0.027-0.002-0.040l0 0.002c-0.198-2.528 0.285-4.389 1.435-5.532 1.107-1.098 2.444-1.127 2.497-1.128 0.004 0 0.008 0 0.013 0 0.242 0 0.451-0.141 0.549-0.345l0.002-0.004c0.679-1.55 1.77-1.772 2.337-1.772 0.183 0 0.312 0.023 0.354 0.032 0.044 0.011 0.095 0.017 0.147 0.017 0.165 0 0.315-0.062 0.43-0.164l-0.001 0.001c1.235-1.128 2.504-1.561 3.773-1.289 0.97 0.208 1.603 0.767 1.607 0.771 0.112 0.101 0.261 0.162 0.424 0.162 0.002 0 0.003 0 0.005-0h0.023c0.16 0 0.315-0.058 0.429-0.162 0.436-0.356 0.96-0.62 1.535-0.756l0.026-0.005c1.283-0.293 2.568 0.137 3.818 1.279 0.148 0.135 0.366 0.19 0.57 0.147 0.182-0.038 1.8-0.312 2.698 1.74 0.102 0.207 0.311 0.347 0.553 0.347 0.003 0 0.005 0 0.007-0h-0c0.056 0.001 1.394 0.030 2.5 1.128 1.15 1.143 1.632 3.005 1.434 5.532-0.001 0.012-0.002 0.025-0.002 0.039 0 0.116 0.038 0.223 0.102 0.31l-0.001-0.001c0.009 0.010 0.774 1.073 0.967 2.48 0.251 1.838-0.59 3.36-2.499 4.522z"></path>
<path d="M26.204 3.987c-0.107-0.29-0.45-0.446-0.768-0.35-3.774 1.15-3.817 4.031-3.817 4.153 0 0.305 0.269 0.55 0.602 0.552h0.004c0.332 0 0.603-0.245 0.607-0.548 0.002-0.090 0.067-2.216 2.988-3.105 0.318-0.097 0.49-0.41 0.384-0.701zM28.945 18.852c-0.119-0.134-0.292-0.218-0.484-0.218-0.137 0-0.263 0.042-0.368 0.115l0.002-0.001c-0.99 0.689-1.883 0.934-2.656 0.73-1.378-0.362-2.071-2.020-2.078-2.036-0.116-0.287-0.466-0.434-0.779-0.327-0.314 0.106-0.475 0.425-0.359 0.712 0.036 0.090 0.907 2.193 2.873 2.715 0.293 0.078 0.592 0.117 0.896 0.117 0.904 0 1.856-0.344 2.838-1.029 0.144-0.095 0.238-0.256 0.238-0.439 0-0.129-0.047-0.247-0.124-0.338l0.001 0.001zM18.686 19.314c-0.114-0.101-0.264-0.162-0.429-0.162s-0.315 0.062-0.43 0.163l0.001-0.001c-0.109 0.096-0.178 0.236-0.178 0.392s0.069 0.296 0.177 0.392l0.001 0c1.97 1.8 1.562 3.54 1.541 3.622-0.079 0.296 0.119 0.595 0.442 0.67 0.050 0.010 0.099 0.016 0.148 0.016 0.272 0 0.52-0.169 0.588-0.42 0.027-0.097 0.622-2.403-1.86-4.672zM28.101 14.118c-0.114-0.287-0.462-0.435-0.777-0.332-0.122 0.040-3.016 0.965-4.552-0.904-0.799-0.97-1.142-1.802-1.417-2.47-0.339-0.819-0.658-1.593-1.719-1.673-0.33-0.025-0.627 0.202-0.654 0.507s0.22 0.573 0.555 0.598c0.254 0.019 0.35 0.153 0.682 0.96 0.287 0.694 0.68 1.646 1.582 2.743 1.058 1.286 2.533 1.61 3.75 1.61 0.782-0.002 1.535-0.123 2.242-0.344l-0.053 0.014c0.314-0.104 0.475-0.421 0.361-0.709zM15.989 1.018c-0.336 0-0.608 0.249-0.608 0.555v27.46c0 0.305 0.272 0.554 0.607 0.554s0.607-0.249 0.607-0.555v-27.46c0-0.305-0.272-0.554-0.607-0.554z"></path>
<path d="M20.425 5.795c-0.005-0.306-0.27-0.554-0.616-0.546-0.335 0.004-0.603 0.256-0.598 0.562 0 0.035 0.034 3.492-1.858 5.684-0.081 0.092-0.13 0.213-0.13 0.346 0 0.18 0.091 0.338 0.229 0.432l0.002 0.001c0.103 0.074 0.232 0.119 0.372 0.119 0.002 0 0.003 0 0.005 0h-0c0.18 0 0.357-0.072 0.477-0.211 2.156-2.498 2.121-6.23 2.119-6.387zM21.66 22.778c-2.675 0-3.926 3.346-3.978 3.488-0.106 0.29 0.065 0.604 0.383 0.701 0.064 0.020 0.129 0.029 0.192 0.029 0.254 0 0.49-0.147 0.576-0.379 0.28-0.759 1.332-2.73 2.827-2.73 0.335 0 0.606-0.248 0.606-0.554s-0.272-0.555-0.606-0.555zM22.343 1.413c-0.101-0.069-0.226-0.11-0.36-0.11-0.195 0-0.37 0.087-0.488 0.223l-0.001 0.001-1.456 1.787c-0.074 0.090-0.119 0.206-0.119 0.333 0 0.186 0.097 0.349 0.242 0.442l0.002 0.001c0.101 0.069 0.225 0.11 0.359 0.11 0.001 0 0.002 0 0.003 0h-0c0.002 0 0.005 0 0.008 0 0.192 0 0.364-0.087 0.479-0.223l0.001-0.001 1.456-1.788c0.074-0.090 0.119-0.206 0.119-0.332 0-0.185-0.096-0.348-0.242-0.442l-0.002-0.001zM9.919 4.997c-1.338 0-2.427 0.994-2.427 2.217s1.089 2.218 2.427 2.218 2.427-0.995 2.427-2.218c0-1.223-1.089-2.218-2.427-2.218zM9.919 8.323c-0.67 0-1.214-0.497-1.214-1.109s0.545-1.109 1.214-1.109c0.67 0 1.214 0.497 1.214 1.109s-0.545 1.109-1.214 1.109zM5.671 12.204c-1.338 0-2.427 0.995-2.427 2.218s1.089 2.218 2.427 2.218c1.339 0 2.428-0.995 2.428-2.218s-1.090-2.218-2.428-2.218zM5.671 15.531c-0.669 0-1.213-0.498-1.213-1.11 0-0.61 0.544-1.108 1.213-1.108s1.214 0.497 1.214 1.109c0 0.611-0.544 1.109-1.214 1.109zM11.739 17.194c-1.338 0-2.427 0.995-2.427 2.218s1.090 2.218 2.428 2.218c1.338 0 2.427-0.995 2.427-2.218s-1.090-2.218-2.427-2.218zM11.739 20.521c-0.669 0-1.213-0.498-1.213-1.11 0-0.61 0.544-1.108 1.214-1.108s1.213 0.497 1.213 1.109c0 0.611-0.544 1.109-1.213 1.109zM11.739 23.293c-1.338 0-2.427 0.995-2.427 2.218s1.090 2.218 2.428 2.218c1.338 0 2.427-0.995 2.427-2.218s-1.090-2.218-2.427-2.218zM11.739 26.62c-0.669 0-1.213-0.498-1.213-1.11 0-0.61 0.544-1.108 1.214-1.108s1.213 0.497 1.213 1.109c0 0.611-0.544 1.109-1.213 1.109z"></path>
<path d="M9.919 8.323c-0.335 0-0.607 0.248-0.607 0.554v5.545c0 0.306 0.272 0.554 0.607 0.554s0.607-0.248 0.607-0.554v-5.545c0-0.306-0.272-0.554-0.607-0.554z"></path>
<path d="M11.739 13.867h-4.246c-0.335 0-0.607 0.249-0.607 0.555s0.272 0.554 0.607 0.554h4.247c0.336 0 0.607-0.248 0.607-0.554s-0.271-0.555-0.606-0.555z"></path>
<path d="M11.739 13.867c-0.334 0-0.606 0.249-0.606 0.555v3.326c0 0.307 0.272 0.555 0.607 0.555s0.606-0.248 0.606-0.555v-3.326c0-0.306-0.271-0.555-0.606-0.555zM11.739 20.521c-0.334 0-0.606 0.248-0.606 0.554v2.772c0 0.307 0.272 0.555 0.607 0.555s0.606-0.248 0.606-0.555v-2.772c0-0.306-0.271-0.554-0.606-0.554z"></path>
</svg>