<svg version="1.1" xmlns="http://www.w3.org/2000/svg" viewBox="0 0 32 32">
<path d="M30.4 0h-28.8c-0.884 0-1.6 0.716-1.6 1.6v0 28.8c0 0.884 0.716 1.6 1.6 1.6v0h28.8c0.884 0 1.6-0.716 1.6-1.6v0-28.8c0-0.884-0.716-1.6-1.6-1.6v0zM30.933 30.4c0 0.294-0.239 0.533-0.533 0.533v0h-28.8c-0.294 0-0.533-0.239-0.533-0.533v0-25.067h29.866v25.067zM1.067 4.267v-2.667c0-0.295 0.238-0.533 0.533-0.533h28.8c0.295 0 0.533 0.238 0.533 0.533v2.667h-29.866z"></path>
<path d="M2.288 2.288c-0.095 0.098-0.154 0.232-0.155 0.379v0c0.001 0.070 0.016 0.138 0.043 0.202 0.026 0.069 0.064 0.127 0.112 0.176l-0-0c0.095 0.086 0.221 0.138 0.359 0.138 0.296 0 0.536-0.24 0.536-0.536 0-0.138-0.052-0.264-0.138-0.359l0 0c-0.099-0.092-0.232-0.148-0.378-0.148s-0.279 0.056-0.379 0.148l0-0zM4.421 2.288c-0.095 0.1-0.153 0.236-0.153 0.385 0 0.035 0.003 0.070 0.010 0.103l-0.001-0.003c0.006 0.036 0.018 0.068 0.033 0.098l-0.001-0.002c0.013 0.037 0.029 0.068 0.049 0.097l-0.001-0.001c0.021 0.030 0.042 0.056 0.065 0.081l-0.001-0.001c0.097 0.096 0.231 0.155 0.379 0.155s0.282-0.059 0.379-0.155l-0 0 0.064-0.080c0.019-0.028 0.035-0.059 0.047-0.093l0.001-0.003c0.014-0.028 0.026-0.060 0.032-0.094l0-0.002c0.007-0.033 0.012-0.072 0.012-0.111 0-0.294-0.239-0.533-0.533-0.533-0.149 0-0.283 0.061-0.38 0.159l-0 0zM6.555 2.288c-0.097 0.097-0.157 0.231-0.157 0.38 0 0.296 0.24 0.536 0.536 0.536s0.536-0.24 0.536-0.536c0-0.148-0.060-0.282-0.157-0.38v0c-0.099-0.092-0.232-0.148-0.378-0.148s-0.279 0.056-0.379 0.148l0-0zM29.867 6.4h-27.734v7.467h27.734v-7.467zM28.8 12.8h-25.6v-5.333h25.6v5.333zM11.733 14.933h-9.6v14.934h9.6v-14.934zM10.667 28.8h-7.467v-12.8h7.467v12.8zM12.8 21.867h17.067v-6.934h-17.067v6.934zM13.867 16h14.933v4.8h-14.933v-4.8zM12.8 29.867h17.067v-6.934h-17.067v6.934zM13.867 24h14.933v4.8h-14.933v-4.8z"></path>
</svg>