<svg version="1.1" xmlns="http://www.w3.org/2000/svg" viewBox="0 0 32 32">
<path d="M30.353 12.643l-2.244-0.38c-0.262-0.841-0.568-1.563-0.935-2.247l0.033 0.068 1.322-1.85c0.23-0.318 0.369-0.717 0.369-1.147 0-0.546-0.222-1.041-0.582-1.397l-1.991-1.991c-0.356-0.36-0.849-0.582-1.395-0.582-0.43 0-0.827 0.138-1.15 0.372l0.006-0.004-1.856 1.323c-0.641-0.349-1.389-0.664-2.169-0.905l-0.089-0.024-0.374-2.218c-0.161-0.942-0.971-1.65-1.947-1.65-0.001 0-0.003 0-0.004 0h-2.813c-0.97 0-1.79 0.695-1.951 1.65l-0.388 2.272c-0.748 0.233-1.476 0.54-2.17 0.915l-1.839-1.323c-0.317-0.229-0.714-0.367-1.142-0.367-0.002 0-0.005 0-0.007 0h0c-0.002 0-0.005-0-0.008-0-0.543 0-1.034 0.222-1.387 0.58l-0 0-1.997 1.993c-0.358 0.358-0.58 0.853-0.58 1.399 0 0.43 0.137 0.827 0.37 1.152l-0.004-0.006 1.337 1.877c-0.332 0.619-0.634 1.343-0.866 2.097l-0.023 0.088-2.218 0.373c-0.955 0.16-1.65 0.982-1.65 1.95v2.813c0 0.969 0.695 1.79 1.65 1.95l2.272 0.388c0.233 0.749 0.54 1.477 0.915 2.172l-1.316 1.83c-0.23 0.318-0.369 0.717-0.369 1.147 0 0.546 0.222 1.041 0.582 1.398l1.991 1.991c0.356 0.36 0.849 0.582 1.395 0.582 0.43 0 0.827-0.138 1.15-0.372l-0.006 0.004 1.877-1.336c0.675 0.354 1.383 0.641 2.111 0.868l0.374 2.245c0.16 0.955 0.982 1.65 1.951 1.65h2.82c0.968 0 1.79-0.695 1.95-1.65l0.38-2.245c0.841-0.262 1.563-0.568 2.247-0.935l-0.068 0.033 1.85 1.323c0.334 0.24 0.735 0.368 1.15 0.368 0.527 0 1.021-0.208 1.395-0.582l1.991-1.99c0.358-0.358 0.58-0.853 0.58-1.399 0-0.43-0.137-0.828-0.37-1.152l0.004 0.006-1.323-1.856c0.368-0.701 0.675-1.43 0.902-2.178l2.245-0.374c0.942-0.161 1.65-0.971 1.65-1.947 0-0.001 0-0.002 0-0.003v0-2.813c0-0.008 0-0.016 0-0.025 0-0.966-0.703-1.769-1.626-1.923l-0.011-0.002zM30.2 17.406c0 0.087-0.060 0.16-0.147 0.174l-2.806 0.468c-0.352 0.060-0.632 0.319-0.721 0.655l-0.001 0.006c-0.277 1.062-0.675 1.994-1.189 2.848l0.027-0.048c-0.079 0.131-0.126 0.29-0.126 0.46 0 0.195 0.062 0.376 0.168 0.524l-0.002-0.003 1.65 2.325c0.019 0.028 0.031 0.063 0.031 0.101 0 0.049-0.019 0.093-0.051 0.126l-1.99 1.991c-0.031 0.033-0.075 0.053-0.123 0.053-0.002 0-0.003-0-0.005-0h0c-0 0-0.001 0-0.001 0-0.037 0-0.072-0.012-0.099-0.033l0 0-2.318-1.65c-0.145-0.104-0.326-0.166-0.522-0.166-0.17 0-0.329 0.047-0.464 0.128l0.004-0.002c-0.875 0.521-1.817 0.908-2.8 1.162-0.343 0.088-0.603 0.369-0.659 0.717l-0.001 0.005-0.475 2.806c-0.013 0.084-0.085 0.147-0.171 0.147-0.001 0-0.002 0-0.003-0h-2.812c-0.001 0-0.002 0-0.003 0-0.086 0-0.158-0.063-0.171-0.146l-0-0.001-0.468-2.806c-0.060-0.352-0.319-0.632-0.655-0.721l-0.006-0.001c-1.040-0.275-1.951-0.659-2.792-1.15l0.053 0.028c-0.131-0.075-0.287-0.12-0.454-0.12h-0c-0.002 0-0.003 0-0.005 0-0.194 0-0.373 0.063-0.518 0.169l0.002-0.002-2.339 1.663c-0.028 0.019-0.062 0.032-0.099 0.034l-0.001 0c-0.050-0-0.095-0.021-0.127-0.054l-1.99-1.99c-0.032-0.033-0.051-0.077-0.051-0.126 0-0.038 0.012-0.073 0.032-0.102l-0 0.001 1.643-2.305c0.104-0.146 0.166-0.328 0.166-0.525 0-0.171-0.047-0.33-0.128-0.467l0.002 0.004c-0.493-0.804-0.895-1.733-1.159-2.719l-0.017-0.074c-0.094-0.34-0.371-0.596-0.715-0.66l-0.006-0.001-2.826-0.481c-0.084-0.013-0.147-0.085-0.147-0.171 0-0.001 0-0.002 0-0.003v0-2.812c0-0.087 0.060-0.16 0.147-0.174l2.786-0.468c0.356-0.060 0.638-0.322 0.727-0.662l0.001-0.006c0.247-0.982 0.628-1.93 1.142-2.806 0.077-0.129 0.123-0.285 0.123-0.452 0-0.197-0.064-0.379-0.171-0.526l0.002 0.003-1.663-2.338c-0.019-0.028-0.031-0.063-0.031-0.101 0-0.049 0.019-0.093 0.051-0.126l1.99-1.991c0.031-0.033 0.075-0.054 0.124-0.054 0.001 0 0.003 0 0.004 0h-0c0.040 0 0.073 0.014 0.1 0.034l2.305 1.643c0.294 0.207 0.681 0.22 0.988 0.040 0.869-0.52 1.81-0.922 2.793-1.175 0.34-0.094 0.597-0.372 0.66-0.716l0.001-0.006 0.481-2.826c0.013-0.084 0.085-0.147 0.171-0.147 0.001 0 0.002 0 0.003 0h2.812c0.087 0 0.16 0.060 0.174 0.147l0.468 2.786c0.060 0.354 0.32 0.641 0.668 0.728 1.009 0.254 1.97 0.648 2.866 1.176 0.307 0.18 0.688 0.167 0.982-0.040l2.305-1.657c0.028-0.019 0.063-0.031 0.099-0.033l0-0c0.027 0 0.080 0.006 0.127 0.053l1.99 1.99c0.060 0.061 0.067 0.155 0.020 0.228l-1.649 2.318c-0.104 0.145-0.166 0.326-0.166 0.522 0 0.17 0.047 0.329 0.128 0.464l-0.002-0.004c0.522 0.875 0.91 1.817 1.163 2.8 0.088 0.343 0.368 0.602 0.716 0.659l0.005 0.001 2.806 0.475c0.084 0.013 0.147 0.085 0.147 0.171 0 0.001 0 0.002-0 0.003v-0 2.812h-0.006z"></path>
<path d="M16.003 9.096c-3.81 0.003-6.897 3.090-6.9 6.9v0c0.002 3.81 3.090 6.899 6.9 6.902h0c3.81-0.002 6.899-3.091 6.901-6.901v-0c-0.002-3.81-3.090-6.898-6.9-6.901h-0zM16.003 21.094c-2.814-0.002-5.095-2.283-5.097-5.097v-0c0.001-2.815 2.282-5.096 5.097-5.098h0c2.815 0.001 5.097 2.283 5.098 5.098v0c-0.002 2.815-2.283 5.096-5.098 5.097h-0z"></path>
</svg>