<svg version="1.1" xmlns="http://www.w3.org/2000/svg" viewBox="0 0 32 32">
<path d="M16 0.762c-8.411 0-15.238 6.827-15.238 15.238s6.827 15.238 15.238 15.238 15.238-6.827 15.238-15.238-6.827-15.238-15.238-15.238zM16 28.19c-6.72 0-12.19-5.47-12.19-12.19s5.47-12.19 12.19-12.19 12.19 5.47 12.19 12.19-5.47 12.19-12.19 12.19zM14.476 22.095h3.048v3.048h-3.048v-3.048zM16.93 6.918c-0.276-0.044-0.594-0.069-0.918-0.069-2.734 0-5.048 1.799-5.822 4.278l-0.012 0.043c-0.274 0.883 0.396 1.782 1.326 1.782h0.305c0.624 0 1.127-0.442 1.34-1.020 0.488-1.357 1.936-2.286 3.505-1.951 1.448 0.305 2.515 1.722 2.393 3.2-0.153 2.042-2.469 2.484-3.734 4.389 0 0.015-0.015 0.015-0.015 0.030-0.015 0.030-0.030 0.046-0.046 0.076-0.134 0.216-0.261 0.466-0.368 0.728l-0.012 0.034c-0.016 0.046-0.046 0.076-0.062 0.122-0.015 0.030-0.015 0.061-0.030 0.107-0.194 0.547-0.305 1.178-0.305 1.835 0 0.024 0 0.049 0 0.073l-0-0.004h3.048c0-0.64 0.167-1.173 0.426-1.63 0.031-0.046 0.046-0.091 0.077-0.137 0.122-0.214 0.274-0.412 0.426-0.594 0.016-0.016 0.030-0.046 0.046-0.061 0.152-0.183 0.32-0.35 0.503-0.519 1.463-1.386 3.444-2.514 3.032-5.424-0.365-2.652-2.453-4.892-5.104-5.288z"></path>
</svg>