<svg version="1.1" xmlns="http://www.w3.org/2000/svg" viewBox="0 0 32 32">
<path d="M19.912 14.944c0-0.194-0.158-0.352-0.352-0.352s-0.352 0.158-0.352 0.352v0 0.704c0 0.194 0.158 0.352 0.352 0.352s0.352-0.158 0.352-0.352v0-0.704zM18.504 17.056c0-0.194-0.158-0.352-0.352-0.352s-0.352 0.158-0.352 0.352v0 0.704c0.007 0.189 0.162 0.34 0.352 0.34s0.345-0.151 0.352-0.339l0-0.001v-0.704zM19.912 17.056c0-0.194-0.158-0.352-0.352-0.352s-0.352 0.158-0.352 0.352v0 0.704c0 0.194 0.158 0.352 0.352 0.352s0.352-0.158 0.352-0.352v0-0.704zM17.096 14.944c0-0.194-0.158-0.352-0.352-0.352s-0.352 0.158-0.352 0.352v0 0.704c0 0.194 0.158 0.352 0.352 0.352s0.352-0.158 0.352-0.352v0-0.704zM18.504 14.944c0-0.194-0.158-0.352-0.352-0.352s-0.352 0.158-0.352 0.352v0 0.704c0.007 0.189 0.162 0.34 0.352 0.34s0.345-0.151 0.352-0.339l0-0.001v-0.704zM19.912 11.425v-0.704c0-0.194-0.158-0.352-0.352-0.352s-0.352 0.158-0.352 0.352v0 0.704c0 0.194 0.158 0.352 0.352 0.352s0.352-0.158 0.352-0.352v0zM17.096 17.056c0-0.194-0.158-0.352-0.352-0.352s-0.352 0.158-0.352 0.352v0 0.704c0 0.194 0.158 0.352 0.352 0.352s0.352-0.158 0.352-0.352v0-0.704zM21.32 10.72c0-0.194-0.158-0.352-0.352-0.352s-0.352 0.158-0.352 0.352v0 0.704c0 0.194 0.158 0.352 0.352 0.352s0.352-0.158 0.352-0.352v0-0.704z"></path>
<path d="M18.152 11.776c0.194 0 0.352-0.158 0.352-0.352v-1.485l3.52-0.88v5.885c0 0.147 0.091 0.278 0.229 0.33l2.587 0.97v0.763c0 0.194 0.158 0.352 0.352 0.352s0.352-0.158 0.352-0.352v0-1.007c-0-0.15-0.094-0.278-0.226-0.329l-0.002-0.001-2.587-0.97v-6.796c-0.007-0.189-0.162-0.34-0.352-0.34s-0.345 0.151-0.352 0.339l-0 0.001v0.429l-3.957 0.989c-0.154 0.039-0.266 0.177-0.266 0.341 0 0 0 0 0 0.001v-0 1.76c0 0.194 0.158 0.352 0.352 0.352zM24.135 17.056c0-0.194-0.158-0.352-0.352-0.352s-0.352 0.158-0.352 0.352v0 0.704c0 0.194 0.158 0.352 0.352 0.352s0.352-0.158 0.352-0.352v0-0.704zM22.727 17.056c-0.007-0.189-0.162-0.34-0.352-0.34s-0.345 0.151-0.352 0.339l-0 0.001v0.704c0.007 0.189 0.162 0.34 0.352 0.34s0.345-0.151 0.352-0.339l0-0.001v-0.704zM19.912 21.279c0-0.194-0.158-0.352-0.352-0.352s-0.352 0.158-0.352 0.352v0 0.704c0 0.194 0.158 0.352 0.352 0.352s0.352-0.158 0.352-0.352v0-0.704zM19.912 19.168c0-0.194-0.158-0.352-0.352-0.352s-0.352 0.158-0.352 0.352v0 0.704c0 0.194 0.158 0.352 0.352 0.352s0.352-0.158 0.352-0.352v0-0.704z"></path>
<path d="M20.968 25.151c0.194 0 0.352-0.158 0.352-0.352v-11.262c-0-0.164-0.112-0.302-0.264-0.341l-0.002-0.001-5.632-1.408c-0.026-0.007-0.055-0.010-0.085-0.010-0.194 0-0.352 0.157-0.352 0.352v5.595c0 0.194 0.158 0.352 0.352 0.352s0.352-0.158 0.352-0.352v0-5.144l4.928 1.232v10.988c0 0.195 0.158 0.352 0.352 0.352zM12.872 12.832c0-0.194-0.158-0.352-0.352-0.352s-0.352 0.158-0.352 0.352v0 0.704c0 0.194 0.158 0.352 0.352 0.352s0.352-0.158 0.352-0.352v0-0.704zM12.872 10.72c0-0.194-0.158-0.352-0.352-0.352s-0.352 0.158-0.352 0.352v0 0.704c0 0.194 0.158 0.352 0.352 0.352s0.352-0.158 0.352-0.352v0-0.704zM6.848 15.967c0.048 0 0.179 0.011 0.393 0.032h3.52v8.799c0.007 0.189 0.162 0.34 0.352 0.34s0.345-0.151 0.352-0.339l0-0.001v-9.151c-0-0.194-0.158-0.352-0.352-0.352h-4.224c-0.194 0-0.352 0.157-0.352 0.352v0-0.036c0 0.194 0.239 0.356 0.311 0.356zM10.76 12.832v0.704c0 0.194 0.158 0.352 0.352 0.352s0.352-0.158 0.352-0.352v0-0.704c0-0.194-0.158-0.352-0.352-0.352s-0.352 0.158-0.352 0.352v0zM12.872 8.608c0-0.194-0.158-0.352-0.352-0.352s-0.352 0.158-0.352 0.352v0 0.704c0 0.194 0.158 0.352 0.352 0.352s0.352-0.158 0.352-0.352v0-0.704z"></path>
<path d="M25.895 25.854h-0.704v-1.445c0.61-0.161 1.053-0.707 1.056-1.357v-0c-0.001-0.777-0.63-1.407-1.407-1.408h-0c-0.777 0.001-1.407 0.631-1.408 1.408v0c0.002 0.65 0.445 1.197 1.046 1.355l0.010 0.002v1.446h-8.799v-0.011c0.809-0.171 1.407-0.878 1.408-1.725v-0c-0.001-0.971-0.789-1.758-1.76-1.76h-0c-0.971 0.001-1.758 0.789-1.76 1.76v0c0.001 0.847 0.599 1.554 1.396 1.722l0.012 0.002v0.011h-7.743v-2.123c0.808-0.171 1.407-0.877 1.408-1.724v-0c-0.002-0.971-0.789-1.758-1.76-1.759h-0c-0.971 0.001-1.758 0.788-1.76 1.759v0c0.001 0.847 0.599 1.554 1.396 1.723l0.011 0.002v2.123h-1.056c-0.194 0-0.352 0.158-0.352 0.352s0.158 0.352 0.352 0.352v0h20.413c0.194 0 0.352-0.158 0.352-0.352s-0.158-0.352-0.352-0.352v0zM5.845 22.020c0-0.582 0.474-1.056 1.056-1.056s1.056 0.474 1.056 1.056c0 0.582-0.474 1.056-1.056 1.056s-1.056-0.474-1.056-1.056zM14.28 24.12c0-0.582 0.474-1.056 1.056-1.056s1.056 0.474 1.056 1.056c0 0.583-0.474 1.056-1.056 1.056s-1.056-0.474-1.056-1.056zM24.135 23.052c0-0.388 0.316-0.704 0.704-0.704s0.704 0.316 0.704 0.704c0 0.388-0.316 0.704-0.704 0.704s-0.704-0.316-0.704-0.704zM14.28 14.944c0-0.194-0.158-0.352-0.352-0.352s-0.352 0.158-0.352 0.352v0 0.704c0 0.194 0.158 0.352 0.352 0.352s0.352-0.158 0.352-0.352v0-0.704zM14.28 12.832c0-0.194-0.158-0.352-0.352-0.352s-0.352 0.158-0.352 0.352v0 0.704c0 0.194 0.158 0.352 0.352 0.352s0.352-0.158 0.352-0.352v0-0.704zM14.28 17.056c0-0.194-0.158-0.352-0.352-0.352s-0.352 0.158-0.352 0.352v0 0.704c0 0.194 0.158 0.352 0.352 0.352s0.352-0.158 0.352-0.352v0-0.704zM14.28 10.72c0-0.194-0.158-0.352-0.352-0.352s-0.352 0.158-0.352 0.352v0 0.704c0 0.194 0.158 0.352 0.352 0.352s0.352-0.158 0.352-0.352v0-0.704z"></path>
<path d="M9.705 14.592c0.194 0 0.352-0.158 0.352-0.352v-2.599l1.213-0.607c0.116-0.059 0.194-0.178 0.194-0.315v-2.951l1.76-0.879 1.76 0.88v2.95c0 0.194 0.158 0.352 0.352 0.352s0.352-0.158 0.352-0.352v0-3.168c-0-0.137-0.078-0.255-0.193-0.314l-0.002-0.001-1.917-0.959v-0.486c0-0.194-0.158-0.352-0.352-0.352s-0.352 0.158-0.352 0.352v0 0.486l-1.917 0.958c-0.116 0.059-0.195 0.178-0.195 0.315v0 2.951l-1.213 0.606c-0.116 0.059-0.194 0.178-0.194 0.315v0 2.816c0 0.194 0.158 0.352 0.352 0.352zM12.872 17.056c0-0.194-0.158-0.352-0.352-0.352s-0.352 0.158-0.352 0.352v0 0.704c0 0.194 0.158 0.352 0.352 0.352s0.352-0.158 0.352-0.352v0-0.704z"></path>
<path d="M14.28 8.608c0-0.194-0.158-0.352-0.352-0.352s-0.352 0.158-0.352 0.352v0 0.704c0 0.194 0.158 0.352 0.352 0.352s0.352-0.158 0.352-0.352v0-0.704zM12.872 14.944c0-0.194-0.158-0.352-0.352-0.352s-0.352 0.158-0.352 0.352v0 0.704c0 0.194 0.158 0.352 0.352 0.352s0.352-0.158 0.352-0.352v0-0.704z"></path>
<path d="M5.245 18.495c-0.048 0.050-0.077 0.117-0.077 0.192s0.030 0.142 0.078 0.192l-0-0c0.048 0.049 0.114 0.079 0.188 0.079s0.14-0.030 0.188-0.079l0-0c0.33-0.337 0.789-0.547 1.298-0.547s0.968 0.209 1.297 0.546l0 0c0.048 0.049 0.114 0.079 0.187 0.079s0.14-0.030 0.187-0.079l0-0c0.048-0.050 0.078-0.117 0.078-0.192s-0.030-0.142-0.078-0.192l0 0c-0.425-0.435-1.017-0.705-1.673-0.705s-1.248 0.27-1.673 0.705l-0 0z"></path>
<path d="M5.947 19.22c-0.049 0.050-0.079 0.118-0.079 0.194s0.030 0.144 0.079 0.194l-0-0c0.049 0.049 0.116 0.080 0.191 0.080s0.142-0.031 0.191-0.080l0-0c0.15-0.153 0.359-0.248 0.59-0.248s0.44 0.095 0.589 0.248l0 0c0.049 0.049 0.116 0.080 0.191 0.080s0.142-0.031 0.191-0.080l0-0c0.049-0.050 0.079-0.118 0.079-0.193s-0.030-0.143-0.079-0.193l0 0c-0.247-0.252-0.591-0.409-0.972-0.409s-0.724 0.156-0.971 0.407l-0 0zM9.361 17.747c-1.328-1.403-3.488-1.403-4.817 0-0.048 0.052-0.078 0.122-0.078 0.199s0.030 0.147 0.078 0.199l-0-0c0.047 0.051 0.114 0.082 0.189 0.082s0.141-0.032 0.189-0.082l0-0c1.12-1.184 2.942-1.184 4.064 0 0.047 0.051 0.114 0.082 0.188 0.083h0c0.074-0.001 0.141-0.032 0.188-0.083l0-0c0.048-0.052 0.078-0.122 0.078-0.199s-0.029-0.147-0.078-0.199l0 0z"></path>
<path d="M13.63 20.702c-0.048 0.050-0.078 0.117-0.078 0.192s0.030 0.142 0.078 0.192l-0-0c0.048 0.049 0.114 0.079 0.188 0.079s0.14-0.030 0.188-0.079l0-0c0.33-0.337 0.789-0.547 1.298-0.547s0.968 0.209 1.297 0.546l0 0c0.048 0.049 0.114 0.079 0.187 0.079s0.14-0.030 0.187-0.079l0-0c0.048-0.050 0.078-0.117 0.078-0.192s-0.030-0.142-0.078-0.192l0 0c-0.425-0.435-1.017-0.705-1.673-0.705s-1.248 0.27-1.673 0.705l-0 0z"></path>
<path d="M14.332 21.426c-0.049 0.050-0.079 0.118-0.079 0.194s0.030 0.144 0.079 0.194l-0-0c0.049 0.049 0.116 0.080 0.191 0.080s0.142-0.031 0.191-0.080l0-0c0.15-0.153 0.359-0.248 0.59-0.248s0.44 0.095 0.59 0.248l0 0c0.049 0.049 0.116 0.080 0.191 0.080s0.142-0.031 0.191-0.080l0-0c0.049-0.050 0.079-0.118 0.079-0.193s-0.030-0.143-0.079-0.193l0 0c-0.247-0.252-0.591-0.409-0.972-0.409s-0.724 0.156-0.971 0.407l-0 0zM17.746 19.953c-1.328-1.402-3.488-1.402-4.817 0-0.048 0.052-0.078 0.122-0.078 0.199s0.030 0.147 0.078 0.2l-0-0c0.047 0.051 0.114 0.082 0.189 0.082s0.142-0.032 0.189-0.082l0-0c1.12-1.185 2.942-1.185 4.064 0 0.047 0.050 0.114 0.082 0.188 0.082h0c0.074-0 0.141-0.032 0.188-0.083l0-0c0.048-0.052 0.078-0.122 0.078-0.199s-0.029-0.147-0.078-0.199l0 0z"></path>
<path d="M23.339 20.040c-0.048 0.049-0.077 0.117-0.077 0.191s0.029 0.142 0.077 0.191l-0-0c0.048 0.049 0.114 0.079 0.188 0.079s0.14-0.030 0.188-0.079l0-0c0.33-0.337 0.789-0.547 1.298-0.547s0.968 0.209 1.297 0.546l0 0c0.048 0.049 0.114 0.079 0.187 0.079s0.14-0.030 0.187-0.079l0-0c0.048-0.049 0.077-0.117 0.077-0.191s-0.029-0.142-0.077-0.191l0 0c-0.425-0.435-1.017-0.705-1.673-0.705s-1.248 0.27-1.673 0.705l-0 0z"></path>
<path d="M24.041 20.764c-0.049 0.050-0.079 0.118-0.079 0.194s0.030 0.144 0.079 0.194l-0-0c0.049 0.049 0.116 0.080 0.191 0.080s0.142-0.031 0.191-0.080l0-0c0.15-0.153 0.359-0.248 0.59-0.248s0.44 0.095 0.59 0.248l0 0c0.049 0.049 0.116 0.080 0.191 0.080s0.142-0.031 0.191-0.080l0-0c0.049-0.050 0.079-0.118 0.079-0.193s-0.030-0.143-0.079-0.193l0 0c-0.247-0.252-0.591-0.409-0.972-0.409s-0.724 0.156-0.971 0.407l-0 0zM27.456 19.291c-1.328-1.403-3.488-1.403-4.817 0-0.048 0.052-0.078 0.122-0.078 0.199s0.030 0.147 0.078 0.199l-0-0c0.047 0.051 0.114 0.082 0.189 0.082s0.142-0.032 0.189-0.082l0-0c1.12-1.184 2.942-1.184 4.064 0 0.047 0.051 0.114 0.082 0.188 0.083h0c0.074-0.001 0.141-0.032 0.188-0.083l0-0c0.048-0.052 0.078-0.122 0.078-0.199s-0.029-0.147-0.078-0.199l0 0z"></path>
</svg>