<svg version="1.1" xmlns="http://www.w3.org/2000/svg" viewBox="0 0 32 32">
<path d="M16.552 8.533h-7.724v7.467h7.724v-7.467zM15.448 14.933h-5.517v-5.333h5.517v5.333zM28.138 8.533h-8.828c-0.003-0-0.006-0-0.009-0-0.297 0-0.537 0.238-0.542 0.534v0c0 0.295 0.246 0.533 0.551 0.533h8.828c0.003 0 0.007 0 0.010 0 0.296 0 0.537-0.238 0.542-0.533v-0c-0.004-0.296-0.245-0.534-0.542-0.534-0.004 0-0.007 0-0.011 0h0.001zM28.138 11.733h-8.828c-0.003-0-0.006-0-0.009-0-0.297 0-0.537 0.238-0.542 0.534v0c0 0.295 0.246 0.533 0.551 0.533h8.828c0.003 0 0.007 0 0.010 0 0.296 0 0.537-0.238 0.542-0.533v-0c-0.004-0.296-0.245-0.534-0.542-0.534-0.004 0-0.007 0-0.011 0h0.001zM28.138 14.933h-8.828c-0.003-0-0.006-0-0.009-0-0.297 0-0.537 0.238-0.542 0.534v0c0 0.295 0.246 0.533 0.551 0.533h8.828c0.003 0 0.007 0 0.010 0 0.296 0 0.537-0.238 0.542-0.533v-0c-0.004-0.296-0.245-0.534-0.542-0.534-0.004 0-0.007 0-0.011 0h0.001zM28.138 18.133h-18.208c-0.003-0-0.007-0-0.010-0-0.297 0-0.537 0.238-0.542 0.534v0c0 0.295 0.247 0.533 0.552 0.533h18.207c0.003 0 0.007 0 0.010 0 0.296 0 0.537-0.238 0.542-0.533v-0c-0.004-0.296-0.245-0.534-0.542-0.534-0.004 0-0.007 0-0.011 0h0.001zM18.207 21.333h-8.277c-0.003-0-0.007-0-0.010-0-0.297 0-0.537 0.238-0.542 0.534v0c0 0.295 0.247 0.533 0.552 0.533h8.276c0.003 0 0.007 0 0.010 0 0.296 0 0.537-0.238 0.542-0.533v-0c-0.004-0.296-0.245-0.534-0.542-0.534-0.004 0-0.007 0-0.011 0h0.001zM18.207 24.533h-8.277c-0.003-0-0.007-0-0.010-0-0.297 0-0.537 0.238-0.542 0.534v0c0 0.295 0.247 0.533 0.552 0.533h8.276c0.003 0 0.007 0 0.010 0 0.296 0 0.537-0.238 0.542-0.533v-0c-0.004-0.296-0.245-0.534-0.542-0.534-0.004 0-0.007 0-0.011 0h0.001zM18.207 27.733h-8.277c-0.003-0-0.007-0-0.010-0-0.297 0-0.537 0.238-0.542 0.534v0c0 0.295 0.247 0.533 0.552 0.533h8.276c0.003 0 0.007 0 0.010 0 0.296 0 0.537-0.238 0.542-0.533v-0c-0.004-0.296-0.245-0.534-0.542-0.534-0.004 0-0.007 0-0.011 0h0.001zM20.966 28.8h7.724v-7.467h-7.724v7.467zM22.069 22.4h5.517v5.333h-5.516v-5.333z"></path>
<path d="M32 6.933c0-0.009-0.005-0.016-0.006-0.025v-6.908h-26.477v16h-5.517v12.8c0 1.765 1.485 3.2 3.31 3.2h25.38c1.822 0 3.304-1.434 3.304-3.195v-21.845c0.001-0.010 0.006-0.017 0.006-0.026zM30.891 1.067v5.333h-24.27v-5.333h24.27zM1.103 28.8v-11.733h4.414v11.733c0 1.177-0.99 2.133-2.207 2.133s-2.207-0.956-2.207-2.133zM28.69 30.933h-22.914c0.009-0.010 0.015-0.020 0.023-0.030 0.237-0.261 0.434-0.564 0.575-0.897l0.008-0.021c0.010-0.022 0.017-0.044 0.025-0.066 0.064-0.163 0.115-0.331 0.15-0.506l0.009-0.048c0.034-0.183 0.055-0.372 0.055-0.565v-21.333h24.27v21.338c0 1.174-0.988 2.128-2.201 2.128z"></path>
<path d="M25.38 2.133h-13.243v3.2h13.241v-3.2zM24.276 4.267h-11.036v-1.067h11.035v1.067z"></path>
</svg>